<svg width="24" height="24" viewBox="0 0 24 24" fill="none" xmlns="http://www.w3.org/2000/svg">
<g id="chevron-left">
<path id="Vector" d="M10.9434 11.6464L10.5898 12L10.9434 12.3535L14.8915 16.3017C15.0174 16.4334 15.0869 16.6091 15.0854 16.7913C15.0838 16.9749 15.0101 17.1504 14.8804 17.2802C14.7506 17.41 14.575 17.4836 14.3915 17.4852C14.2092 17.4868 14.0335 17.4172 13.9018 17.2914L9.10534 12.4949C9.10532 12.4949 9.10531 12.4949 9.10529 12.4948C8.97409 12.3636 8.90039 12.1856 8.90039 12C8.90039 11.8144 8.97411 11.6364 9.10534 11.5051L13.9052 6.70519C13.9053 6.70518 13.9053 6.70516 13.9053 6.70514C14.0366 6.57394 14.2145 6.50024 14.4001 6.50024C14.5857 6.50024 14.7637 6.57392 14.8949 6.70509C15.0262 6.83636 15.0999 7.01437 15.0999 7.19999C15.0999 7.38558 15.0262 7.56357 14.895 7.69483C14.895 7.69485 14.8949 7.69487 14.8949 7.69489L10.9434 11.6464Z" fill="white" stroke="white"/>
</g>
</svg>
