<svg width="256" height="256" viewBox="0 0 256 256" fill="none" xmlns="http://www.w3.org/2000/svg">
<path d="M225.492 91.8795L165.935 98.7698C154.892 99.9026 154.799 109.247 154.799 109.247L139.602 240.16C139.707 241.102 140.03 242.007 140.545 242.803C142.924 246.44 149.513 246.387 149.513 246.387C149.513 246.387 198.593 245.348 209.635 244.782C219.357 244.31 219.924 234.305 219.924 234.305C219.924 234.305 231.156 106.413 232.477 99.4277C233.344 94.6482 229.217 91.8795 225.492 91.8795Z" fill="white"/>
<path d="M225.438 91.4111L165.888 98.3039C154.555 99.4661 154.327 109.148 154.329 109.197L139.136 240.111C139.746 246.24 147.037 250.071 153.195 250.071C154.288 250.071 203.278 248.987 213.438 248.465C223.467 247.978 224.166 237.649 224.173 237.561C224.271 236.281 236.353 109.669 236.633 102.662C236.709 101.17 236.472 99.6776 235.937 98.282C235.402 96.8864 234.58 95.6182 233.527 94.5587C232.472 93.4993 231.207 92.6719 229.815 92.1298C228.422 91.5877 226.931 91.3428 225.438 91.4111ZM155.27 109.253C155.27 108.888 155.507 100.313 165.99 99.2383L225.492 92.3519C226.587 92.4068 227.658 92.6793 228.646 93.1535C229.633 93.6279 230.516 94.2944 231.243 95.1141C231.657 95.7263 231.94 96.418 232.071 97.1452C232.203 97.8725 232.183 98.6193 232.011 99.3381C230.701 106.265 219.91 229.038 219.451 234.276C219.428 234.66 218.785 243.863 209.609 244.308C198.729 244.865 150.287 245.896 149.505 245.912C149.308 245.912 143.193 245.828 140.943 242.456C140.49 241.747 140.192 240.95 140.068 240.118L155.27 109.253Z" fill="#101828"/>
<path d="M154.137 230.344C149.486 230.344 144.605 228.262 145.189 223.672L159.238 112.962C159.238 112.926 159.548 104.559 169.478 103.586L221.858 97.3578C225.76 97.3578 229.259 100.261 228.411 104.34C227.387 110.094 216.728 218.068 216.62 219.156C216.62 219.231 215.925 228.059 207.116 228.548C197.497 229.11 154.137 230.344 154.137 230.344ZM221.906 98.3037L169.578 104.525C160.49 105.421 160.185 112.723 160.178 113.034L146.124 223.791C145.62 227.759 150.168 229.398 154.13 229.4C154.88 229.378 197.492 228.165 207.06 227.608C215.047 227.165 215.655 219.416 215.677 219.082C216.119 214.615 226.452 109.966 227.483 104.164C228.224 100.615 225.065 98.3037 221.906 98.3037Z" fill="#101828"/>
<path d="M176.128 243.84C181.4 243.84 183.441 241.347 183.489 238.271C183.543 234.964 181.3 233.091 178.223 232.686C169.806 231.579 169.518 243.341 176.128 243.84ZM173.506 241.468C171.039 238.524 173.078 233.541 176.699 233.541C179.799 233.541 181.578 237.61 180.041 240.503C178.688 243.04 175.498 243.84 173.508 241.469L173.506 241.468Z" fill="#101828"/>
<path d="M134.317 43.0822C133.655 35.4381 126.962 10.5088 125.256 9.38753C123.658 8.33793 120.251 9.26593 118.46 9.38753C114.792 9.64353 113.88 9.55137 109.116 10.048C81.5885 12.9139 79.264 12.375 78.0634 14.3898C76.3994 17.1866 82.0672 45.8138 83.5379 55.5418C84.5082 61.9558 85.824 68.1856 87.031 74.5126C87.3177 76.023 87.3971 80.1882 88.6349 81.3094C90.3194 82.8352 97.0368 80.6592 98.8288 80.3648C106.01 79.1846 136.489 72.4365 138.565 73.097L134.317 43.0822Z" fill="#0BA5EC"/>
<path d="M199.819 120.576C179.704 121.216 168.075 114.292 160.933 94.72C159.622 91.1283 158.102 85.0918 156.119 81.792C153.864 81.792 139.164 83.7043 138.752 83.8694C137.336 89.0598 137.515 96.329 137.809 100.669C139.709 128.884 159.658 153.715 183.868 152.959C185.797 152.877 187.72 152.687 189.628 152.393C191.089 151.469 192.422 150.358 193.596 149.089C195.362 147.084 197.167 144.925 198.787 142.766C202.059 138.401 210.396 122.566 210.307 119.264C208.786 119.535 202.274 120.495 199.819 120.576Z" fill="#FEDF89"/>
<path d="M148.585 49.3978C146.331 46.1978 145.19 45.7587 143.094 45.1597C142.313 45.0243 141.526 44.9298 140.735 44.8768L140.64 44.9702C140.189 44.5077 139.642 44.1528 139.035 43.9322C137.719 43.401 136.298 43.1752 134.882 43.2717C134.298 43.4176 134.466 43.3101 134.317 43.4611C134.317 43.3651 134.222 43.3651 134.127 43.2717C132.051 40.535 129.499 38.6189 127.615 38.9299C123.924 39.5379 121.354 44.5798 119.876 48.0845C119.085 49.9571 118.834 53.3542 121.54 53.6934C120.445 55.5981 121.752 59.7862 122.515 61.7715C124.632 66.3596 127.398 70.6191 130.728 74.4192C138.885 83.913 138.354 82.4832 138.844 83.9514C139.316 83.7632 152.156 82.1594 155.456 81.8752C153.378 72.8704 153.473 65.6435 152.283 59.7734C152.26 59.648 150.15 51.6186 148.585 49.3978ZM124.521 53.1917C125.096 51.6954 126.354 48.5312 128.092 48.1792C130.221 47.7491 131.658 52.1587 132.178 54.2669C133.078 57.1177 133.451 60.108 133.282 63.0925C128.082 59.1949 127.451 54.3181 124.516 53.1917H124.521Z" fill="white"/>
<path d="M110.154 54.8812C108.467 55.4431 101.979 56.9356 102.319 57.6179C102.509 58.0902 103.83 58.0902 104.207 58.1849C106.283 58.5689 108.832 58.1849 110.908 58.3731L110.154 54.8812Z" fill="white"/>
<path d="M134.227 43.8387C134.164 43.8398 134.103 43.8284 134.044 43.8051C133.986 43.7817 133.934 43.7469 133.889 43.7026C133.846 43.6585 133.81 43.6057 133.787 43.5477C133.764 43.4898 133.752 43.4275 133.754 43.3651C133.754 43.2718 133.782 43.1806 133.834 43.1032C133.885 43.0256 133.96 42.9653 134.045 42.9297C134.132 42.8942 134.227 42.885 134.318 42.9031C134.41 42.9214 134.493 42.9664 134.56 43.0324C134.625 43.0983 134.671 43.1824 134.689 43.2739C134.707 43.3653 134.698 43.4602 134.662 43.5465C134.626 43.6327 134.566 43.7066 134.49 43.7586C134.411 43.8105 134.321 43.8384 134.227 43.8387Z" fill="#101828"/>
<path d="M149.999 50.6546C148.847 48.9202 147.112 46.263 145.167 45.3862C143.676 44.7588 142.075 44.4335 140.457 44.4287C140.019 44.0591 139.537 43.7452 139.022 43.4943C137.541 42.8553 135.912 42.6388 134.314 42.8684C132.778 40.9561 129.928 37.9673 127.425 38.4678C123.387 39.2959 120.629 44.7398 119.355 47.8847C118.272 50.1887 118.482 53.8431 121.102 53.8431C121.228 53.8431 121.348 53.7933 121.436 53.7048C121.525 53.6162 121.575 53.4961 121.575 53.3708C121.575 53.2455 121.525 53.1254 121.436 53.0369C121.348 52.9483 121.228 52.8985 121.102 52.8985C119.37 52.9318 119.432 49.9366 120.219 48.2623C121.432 45.2671 124.008 40.1318 127.614 39.3919C131.091 38.693 137.064 47.4316 138.006 52.3263C138.034 52.4445 138.107 52.5471 138.209 52.613C138.312 52.6788 138.435 52.7029 138.554 52.68C138.674 52.6571 138.779 52.589 138.849 52.49C138.92 52.391 138.951 52.2687 138.933 52.1484C138.176 49.1037 136.815 46.242 134.931 43.7337C136.196 43.6694 137.461 43.8808 138.636 44.3532C141.138 45.6063 142.963 49.0265 144.396 51.1782C144.43 51.2298 144.474 51.2739 144.526 51.3083C144.577 51.3428 144.635 51.3668 144.695 51.3789C144.757 51.391 144.819 51.391 144.879 51.379C144.941 51.367 144.999 51.3432 145.05 51.3087C145.101 51.2743 145.146 51.2301 145.18 51.1787C145.215 51.1272 145.238 51.0695 145.251 51.0087C145.262 50.948 145.262 50.8854 145.251 50.8248C145.239 50.764 145.215 50.7062 145.18 50.6546C144.088 48.8108 142.849 47.0587 141.475 45.4156C144.887 45.8687 145.855 46.1465 149.21 51.1756C149.279 51.2803 149.386 51.3533 149.509 51.3785C149.632 51.4037 149.76 51.3791 149.865 51.31C149.97 51.2409 150.043 51.1331 150.069 51.0101C150.093 50.8872 150.069 50.7593 149.999 50.6546Z" fill="#101828"/>
<path d="M154.811 80.7564C154.028 77.0603 153.486 73.3168 153.192 69.55C153.032 67.95 152.157 58.8095 151.154 57.1711C150.392 56.7052 151.748 55.1231 152.416 57.8764C154.348 65.8546 153.924 72.8345 155.729 80.5401C155.757 80.6618 155.736 80.7899 155.671 80.8963C155.604 81.0027 155.5 81.0785 155.378 81.1071C155.256 81.1359 155.128 81.1151 155.022 81.0493C154.916 80.9835 154.839 80.8781 154.811 80.7564Z" fill="#101828"/>
<path d="M131.642 52.9446C130.963 51.7542 129.802 48.2509 128.269 48.5491C127.738 48.663 127.231 48.855 126.048 51.049C125.874 51.2883 125.354 52.4339 125.206 52.7322C124.837 53.4669 123.767 52.5811 124.453 52.1267C125.327 50.3526 126.254 48.0154 128.082 47.6237C130.473 47.1731 131.658 51.0707 132.461 52.4762C132.516 52.5843 132.529 52.7098 132.494 52.8264C132.46 52.943 132.38 53.0417 132.275 53.1021C132.17 53.1625 132.045 53.1798 131.927 53.1505C131.809 53.1211 131.707 53.0474 131.642 52.9446Z" fill="#101828"/>
<path d="M138.918 83.0719C132.983 76.2879 126.792 70.3423 122.865 61.5999C122.111 59.6402 120.906 55.6018 121.873 53.8188C122.008 53.6004 122.203 53.4247 122.433 53.3114C122.664 53.1982 122.922 53.1523 123.178 53.1788C123.633 53.1788 123.443 53.2313 123.668 53.2671C125.384 53.5538 126.356 55.1487 127.305 56.654C129.125 59.7172 131.575 62.3583 134.493 64.4018C134.592 64.4725 134.713 64.5027 134.833 64.4863C134.953 64.4699 135.062 64.4082 135.137 64.3138C135.213 64.2194 135.25 64.0996 135.24 63.979C135.229 63.8585 135.174 63.7463 135.083 63.6658C134.665 63.3305 134.167 62.99 133.75 62.6713C133.793 60.9009 133.697 59.1299 133.463 57.3746L132.526 57.4783C132.722 58.9303 132.815 60.3945 132.802 61.8597C127.515 57.0764 127.482 53.0162 123.887 52.3481C123.685 52.2652 123.466 52.2285 123.247 52.2405C122.818 52.1977 122.386 52.2774 122.001 52.4706C121.616 52.6636 121.293 52.962 121.071 53.3311C119.891 55.4943 121.113 59.662 121.999 61.9621C126.008 70.8889 132.271 76.8997 138.214 83.694C138.3 83.773 138.413 83.8171 138.529 83.8183C138.646 83.8194 138.758 83.7772 138.847 83.6999C138.934 83.6227 138.99 83.5157 139.003 83.3997C139.016 83.2837 138.986 83.167 138.918 83.0719Z" fill="#101828"/>
<path d="M96.2086 15.8975C95.8381 15.9397 95.4628 15.9056 95.1058 15.7975C94.7488 15.6894 94.4175 15.5096 94.1325 15.2691C93.2889 14.3052 93.8214 12.8127 94.2182 11.342C94.6816 9.62684 94.5177 8.95996 93.5654 8.60156C92.3379 8.12924 90.9005 9.9942 90.6061 11.4624C90.5773 11.5809 90.5038 11.6837 90.4009 11.7492C90.298 11.8147 90.1738 11.8379 90.0543 11.8139C89.9347 11.79 89.829 11.7207 89.7593 11.6205C89.6897 11.5204 89.6616 11.3972 89.6806 11.2768C90.0851 9.25692 92.0205 6.9926 93.9046 7.71964C95.8822 8.46076 95.5123 10.2169 95.008 12.0512C94.24 14.8569 94.4077 15.1935 97.8457 14.8415C101.534 14.642 105.209 14.2412 108.854 13.6409L109.352 13.5743C110.528 13.422 111.862 13.2505 112.41 12.4288C112.927 11.6576 113.166 10.7327 113.087 9.80732C113.078 6.62268 111.469 6.16316 110.253 7.78236C109.948 8.2144 109.687 8.67577 109.473 9.15964C109.434 9.27846 109.348 9.37664 109.236 9.43256C109.124 9.4885 108.994 9.4976 108.876 9.45788C108.757 9.41816 108.659 9.33287 108.603 9.22077C108.547 9.10867 108.538 8.97894 108.577 8.86012C108.813 8.29286 109.114 7.75469 109.473 7.25628C111.251 4.87676 114.031 5.66908 114.031 9.76508C114.123 10.8914 113.829 12.0155 113.197 12.9523C112.407 14.1363 110.879 14.2924 109.001 14.574C103.214 15.4419 96.4672 15.8975 96.2086 15.8975Z" fill="#101828"/>
<path d="M120.576 24.3699C117.86 26.0339 113.998 27.2384 111.039 25.8316C112.678 23.328 113.222 20.3276 110.281 20.0537C106.856 19.8412 107.293 24.3033 109.257 25.7664C109.373 25.8828 109.481 25.9891 109.59 26.0851C105.848 29.6512 100.147 30.3436 96.5246 28.3481C101.184 25.0752 99.4686 20.2048 96.0498 21.0227C93.0674 21.7369 91.6594 25.6435 94.7467 28.2816C93.2871 29.0046 91.6819 29.3859 90.053 29.3964C89.0492 29.3652 88.0585 29.159 87.1256 28.7872C87.1142 28.6718 87.0607 28.5648 86.9755 28.4864C86.8903 28.4079 86.7792 28.3635 86.6634 28.3616C86.5476 28.3596 86.435 28.4003 86.3472 28.476C86.2594 28.5516 86.2026 28.657 86.1874 28.7718C86.174 28.8819 86.1851 28.9935 86.2199 29.0988C86.2546 29.2042 86.312 29.3006 86.3883 29.3811C87.1038 30.1939 90.0248 30.3411 90.053 30.3411C91.9934 30.327 93.9005 29.8337 95.6043 28.9049C97.2938 29.9468 99.2525 30.4686 101.236 30.4051C105.052 30.4051 108.975 28.4224 110.422 26.5766C113.684 28.27 117.965 27.0809 121.075 25.1686C121.171 25.0979 121.237 24.9938 121.259 24.8769C121.281 24.76 121.258 24.6389 121.195 24.5379C121.132 24.4371 121.033 24.3636 120.919 24.3325C120.804 24.3013 120.681 24.3147 120.576 24.3699ZM97.9954 22.4332C98.908 23.5123 98.428 26.0774 95.644 27.7964C91.4034 24.6182 96.1176 20.3276 97.9954 22.4332ZM108.8 21.7318C108.91 21.4625 109.112 21.2408 109.369 21.1059C109.627 20.971 109.924 20.9315 110.208 20.9945C111.104 21.0777 111.28 21.4835 111.339 21.6166C111.734 22.5126 110.975 24.2316 110.21 25.3734C110.123 25.2979 110.018 25.1955 109.874 25.0547C109.417 24.6456 109.076 24.1223 108.887 23.5385C108.699 22.9546 108.669 22.3311 108.8 21.7318Z" fill="#101828"/>
<path d="M119.808 40.3302C118.656 41.0982 114.737 43.4163 111.566 41.8137C111.968 41.4079 112.328 40.9627 112.64 40.4851C113.257 39.4073 113.92 36.6451 112.924 35.4175C112.662 35.1204 112.31 34.9173 111.922 34.8394C111.533 34.7614 111.13 34.813 110.774 34.9862C107.85 35.863 108.14 39.9078 110.134 41.8905C109.009 42.7527 107.697 43.3386 106.304 43.6011C104.911 43.8637 103.475 43.7955 102.113 43.4022C102.878 42.6986 103.395 41.7676 103.589 40.7469C103.783 39.7264 103.643 38.6705 103.19 37.7356C102.907 37.357 102.535 37.0544 102.107 36.8551C101.678 36.6558 101.207 36.5661 100.735 36.5939C100.264 36.6216 99.8064 36.7661 99.4044 37.0143C99.0023 37.2625 98.6683 37.6067 98.4321 38.0159C97.2097 40.0729 98.2606 42.3283 100.232 43.5686C99.294 44.081 98.2642 44.4026 97.2016 44.5151C96.139 44.6276 95.0645 44.5286 94.0404 44.2239C92.9461 43.9286 91.9141 43.4383 90.994 42.7763C91.0118 42.6612 90.9863 42.5434 90.9227 42.4459C90.859 42.3483 90.7614 42.2778 90.6489 42.2477C90.5363 42.2178 90.4166 42.2305 90.3128 42.2833C90.209 42.3362 90.1283 42.4257 90.0865 42.5343C90.0473 42.6395 90.0318 42.7521 90.0408 42.8641C90.0499 42.9759 90.0834 43.0845 90.139 43.182C90.6702 44.1958 93.787 45.1327 93.787 45.1327C95.032 45.4996 96.3412 45.5956 97.6265 45.4141C98.9116 45.2326 100.143 44.7779 101.238 44.0806C102.844 44.6718 104.576 44.8377 106.265 44.562C107.955 44.2864 109.544 43.5787 110.879 42.5075C113.797 44.1715 117.551 42.9644 120.333 41.111C120.424 41.0366 120.485 40.9307 120.502 40.8143C120.52 40.6977 120.493 40.5787 120.427 40.481C120.361 40.383 120.261 40.3134 120.147 40.2855C120.032 40.2576 119.912 40.2736 119.808 40.3302ZM101.233 42.9375C101.209 42.9572 101.183 42.9757 101.157 42.9926C101.097 42.9578 101.032 42.931 100.964 42.9132C99.3345 42.0172 98.2286 40.2009 99.2372 38.5036C99.3909 38.2328 99.6083 38.0034 99.8706 37.8353C100.133 37.6673 100.432 37.5655 100.742 37.5387C101.053 37.512 101.365 37.5613 101.652 37.6821C101.939 37.8028 102.192 37.9917 102.39 38.2323C102.749 39.0334 102.829 39.9313 102.62 40.7838C102.41 41.6362 101.922 42.3942 101.233 42.9375ZM111.054 35.886C111.243 35.8202 111.441 35.7839 111.64 35.7785C113.016 35.7785 112.446 38.9247 111.838 39.9897C111.542 40.4388 111.199 40.8542 110.814 41.2287C109.348 39.7811 108.842 36.5503 111.054 35.886Z" fill="#101828"/>
<path d="M92.7871 56.2023C92.229 55.8311 90.3551 54.4756 90.6278 53.2685C90.6412 53.208 90.6664 53.1509 90.702 53.1002C90.7375 53.0495 90.7826 53.0063 90.835 52.9731C90.8872 52.9398 90.9455 52.9173 91.0064 52.9065C91.0674 52.8958 91.1299 52.8972 91.1903 52.9108C91.2507 52.9242 91.308 52.9494 91.3586 52.9849C91.4093 53.0205 91.4525 53.0656 91.4857 53.1179C91.5189 53.1701 91.5416 53.2285 91.5522 53.2894C91.5629 53.3503 91.5615 53.4128 91.5481 53.4733C91.3561 54.3386 96.5657 58.7469 101.208 56.9882C101.325 56.9438 101.455 56.9478 101.569 56.9992C101.683 57.0505 101.772 57.1451 101.816 57.2621C101.861 57.379 101.857 57.5088 101.805 57.6228C101.754 57.7369 101.659 57.8257 101.542 57.8701C100.057 58.3254 98.4838 58.4114 96.9581 58.1207C95.4324 57.8302 94.0007 57.1716 92.7871 56.2023Z" fill="#101828"/>
<path d="M163.764 51.7376C163.754 51.5889 163.713 51.4438 163.644 51.3116C163.575 51.1795 163.479 51.063 163.363 50.9696C161.285 49.1712 147.331 50.7136 144.931 51.0131C141.796 51.3741 139.171 51.7619 138.409 51.7683C135.709 52.1293 128.261 52.5171 125.569 52.9024C125.45 52.9243 125.344 52.9907 125.273 53.0883C125.202 53.1857 125.171 53.3068 125.186 53.4267C125.201 53.5465 125.262 53.6559 125.355 53.7325C125.449 53.8089 125.568 53.8468 125.688 53.8381C126.747 54.9389 127.652 56.1787 128.376 57.5232C128.376 57.6512 128.609 58.089 128.942 58.089C134.776 58.089 155.656 56.297 155.786 56.297C159.744 56.0179 163.968 55.913 163.764 51.7376Z" fill="#101828"/>
<path d="M121.617 53.2481C118.262 53.2104 114.91 53.4505 111.595 53.9662C110.469 54.2119 111.549 54.0532 107.579 55.1182C106.22 55.4195 104.887 55.8235 103.589 56.3265C102.784 56.6043 101.565 57.0011 101.882 57.7908C102.198 58.5806 103.643 58.532 104.218 58.6459C105.525 58.8299 106.848 58.884 108.166 58.8071C115.968 58.6216 109.777 59.1016 121.478 58.4232C120.901 56.7375 120.95 54.9005 121.617 53.2481ZM108.145 57.8663C106.726 57.9658 105.3 57.8954 103.898 57.6564C103.62 57.6302 103.345 57.5896 103.072 57.5348C105.013 56.8046 106.997 56.1954 109.014 55.7108C108.934 56.098 108.959 56.4993 109.084 56.8742C109.21 57.249 109.432 57.5841 109.728 57.8459C109.204 57.8433 108.672 57.8561 108.145 57.8663Z" fill="#101828"/>
<path d="M173.864 172.768C172.543 173.523 166.792 176.749 164.52 177.677C146.088 185.206 132.993 183.68 118.931 167.578C116.467 164.762 112.891 159.649 109.777 157.195C109.493 157.195 94.2964 165.217 94.2964 165.407C94.8634 170.783 97.6013 177.393 99.4881 181.451C106.948 197.496 121.353 211.809 139.13 215.525C141.486 216.018 146.775 215.997 146.209 216.375C153.307 216.678 160.335 214.871 166.408 211.183C167.451 209.789 168.309 208.267 168.96 206.653C174.399 192.811 174.893 175.339 173.864 172.768Z" fill="white"/>
<path d="M79.7619 138.696L79.0067 138.412C77.6845 139.451 76.3635 140.961 75.0387 142.093C73.7139 143.224 71.2627 144.076 71.0707 141.149C71.2371 137.821 72.855 136.285 73.833 134.834C71.0057 134.743 68.257 135.772 66.1843 137.697C64.1117 139.622 62.8828 142.287 62.7648 145.114C62.5754 150.4 64.7462 153.702 69.655 155.402C72.0722 156.376 74.7666 156.41 77.207 155.496C75.5085 154.269 74.4691 152.664 76.64 151.249C77.2559 150.979 77.926 150.856 78.5976 150.889C79.2692 150.921 79.924 151.109 80.5107 151.438C84.1664 150.24 84.2317 141.074 79.7619 138.696Z" fill="#0BA5EC"/>
<path d="M106.851 138.979C106.17 137.009 105.076 135.206 103.642 133.693C101.92 131.915 101.557 132.645 101.093 133.032C100.156 131.73 98.929 130.664 97.5092 129.917C96.2537 129.185 94.8041 128.856 93.3556 128.974C93.1675 128.974 91.94 129.162 91.94 129.54C91.8452 129.445 91.6571 129.445 91.5623 129.352C90.1318 128.744 88.5862 128.453 87.0324 128.502C86.843 128.502 85.4273 128.502 85.522 128.886L85.4273 129.169C81.3313 128.054 79.0836 128.043 74.2913 134.266C73.9227 134.744 73.5361 135.304 73.1585 135.776C72.026 137.244 71.3674 139.022 71.2705 140.873C71.4599 143.799 73.9867 142.921 75.2385 141.816C78.7585 138.685 82.5806 133.35 85.9047 139.457C87.6691 142.715 88.2995 146.466 87.6967 150.122C87.0567 154.09 84.0155 152.482 81.1841 151.35C80.9947 151.255 80.8001 151.255 80.7118 151.16C80.1258 150.83 79.471 150.642 78.7993 150.609C78.1276 150.577 77.4576 150.701 76.8423 150.972C73.5143 153.116 77.7383 155.935 81.3723 157.39C82.1275 157.774 82.788 158.24 83.5483 158.711C83.1055 156.735 82.4732 154.806 81.6603 152.951C82.5285 154.784 83.1627 156.719 83.5483 158.711C86.6638 160.788 91.5713 164.28 93.9304 165.224H94.5921C94.5921 165.035 109.696 157.012 110.071 157.012C108.775 154.01 109.056 145.175 106.851 138.979Z" fill="#FEDF89"/>
<path d="M173.725 172.358C172.587 173.009 166.799 176.294 164.434 177.24C146.222 184.767 133.343 183.128 119.378 167.268C116.884 164.393 113.437 159.466 110.278 156.922C108.584 149.152 109.723 139.595 103.857 133.34C103.055 132.488 101.801 131.49 100.913 132.253C100.01 131.167 98.9018 130.269 97.6524 129.61C95.3612 128.202 92.4172 128.449 91.6364 129.061C90.1174 128.418 88.4815 128.1 86.8326 128.124C86.8172 128.124 85.1993 128.227 84.7334 128.722C79.4738 127.145 76.4031 130.322 73.0482 134.925C72.8639 135.181 72.6796 135.437 72.494 135.663C71.2792 137.217 70.5833 139.114 70.5049 141.085C70.6905 143.958 73.1071 144.193 75.2409 142.356C78.5996 139.48 82.1106 134.219 85.1801 139.855C86.8868 143.025 87.5009 146.669 86.9273 150.223C85.998 155.803 79.8873 148.459 76.2802 150.754C74.4102 151.976 74.1183 153.826 76.8358 155.786C78.09 156.668 79.439 157.408 80.8575 157.99C82.9055 159.014 90.2745 164.543 93.9826 166.077C94.7199 171.652 97.5065 178.121 99.1398 181.553C111.241 207.593 138.858 223.567 161.476 214.065C163.309 213.303 165.079 212.399 166.77 211.36C167.825 209.924 168.701 208.363 169.38 206.716C174.69 192.61 176.184 170.94 173.725 172.358ZM83.5276 158.51C80.4556 156.39 80.5542 157.207 77.3951 155.018C75.2191 153.444 75.5199 152.39 76.805 151.552C79.6326 149.76 86.7468 157.153 87.8732 150.377C88.4815 146.615 87.8308 142.757 86.0223 139.403C85.7241 138.696 85.2699 138.063 84.6938 137.555C84.1176 137.047 83.4342 136.674 82.6943 136.467C78.4895 135.659 74.711 143.575 72.1471 142.501C71.7375 142.328 71.5071 141.832 71.4521 141.078C71.5323 139.322 72.1589 137.634 73.2441 136.252C73.559 135.859 73.8418 135.438 74.3871 134.729C77.5628 130.602 80.1177 128.029 85.0111 129.805C87.9231 130.65 89.7612 132.792 90.6303 136.353C90.645 136.413 90.6714 136.47 90.7081 136.52C90.7448 136.571 90.791 136.613 90.844 136.645C90.8969 136.677 90.9558 136.699 91.017 136.708C91.0783 136.718 91.1409 136.714 91.2012 136.7C91.2615 136.685 91.3182 136.659 91.3682 136.622C91.4183 136.586 91.4607 136.539 91.4929 136.486C91.525 136.434 91.5465 136.375 91.556 136.314C91.5655 136.252 91.5628 136.189 91.5481 136.129C90.6854 132.594 88.8434 130.258 86.094 129.178C87.957 128.951 89.8462 129.256 91.543 130.058C94.7698 131.626 96.4697 135.238 97.8354 138.141C97.8921 138.249 97.9881 138.33 98.1035 138.369C98.2187 138.408 98.3442 138.4 98.4542 138.347C98.5641 138.296 98.6499 138.204 98.6937 138.09C98.7375 137.978 98.7358 137.852 98.6892 137.739C97.367 134.93 95.7452 131.484 92.7193 129.628C94.2577 129.363 95.8406 129.646 97.1916 130.428C98.5478 131.139 99.7193 132.156 100.613 133.399C101.744 135.002 102.614 136.773 103.191 138.647C103.231 138.761 103.314 138.856 103.423 138.911C103.531 138.966 103.656 138.977 103.772 138.941C103.888 138.907 103.987 138.829 104.047 138.724C104.107 138.618 104.124 138.493 104.095 138.376C103.506 136.468 102.629 134.662 101.495 133.019C102.022 132.322 105.056 135.615 106.315 139.151C108.48 145.226 108.06 151.018 109.33 156.977C106.784 158.208 96.0511 163.643 94.1964 165.144C90.5046 163.159 86.9414 160.943 83.5276 158.51ZM168.52 206.382C167.885 207.924 167.068 209.385 166.088 210.734C158.015 215.548 148.398 217.066 139.234 214.972C123.098 211.452 108.07 198.497 100.013 181.157C98.6854 178.369 95.557 171.327 94.8927 165.637C96.5567 164.639 107.979 158.586 109.796 157.739C116.02 162.85 124.548 180.041 142.285 182.3C148.883 183.114 155.825 181.824 164.794 178.117C166.958 177.252 171.862 174.506 173.69 173.469C174.496 176.964 173.362 193.464 168.52 206.378V206.382Z" fill="#101828"/>
<path d="M74.9977 150.001C70.7263 148.686 72.782 141.96 77.8022 143.241C77.9179 143.277 78.0154 143.356 78.0746 143.461C78.1337 143.567 78.1498 143.691 78.1198 143.809C78.0897 143.927 78.0156 144.028 77.9129 144.092C77.8103 144.156 77.6867 144.179 77.5679 144.155C73.7049 143.168 72.1996 148.152 75.2755 149.098C75.3916 149.138 75.4877 149.221 75.5434 149.33C75.5991 149.44 75.6101 149.567 75.574 149.684C75.5379 149.801 75.4575 149.899 75.35 149.958C75.2424 150.019 75.1161 150.033 74.9977 150.001Z" fill="#101828"/>
<path d="M115.771 227.931C102.379 227.931 90.8812 222.6 86.9555 209.716C81.23 190.762 88.3417 166.374 80.1049 151.668C79.1193 149.846 77.7155 148.283 76.0089 147.108C75.9105 147.035 75.844 146.927 75.8236 146.807C75.8031 146.685 75.8302 146.563 75.8992 146.461C75.9682 146.36 76.0737 146.29 76.1935 146.266C76.3133 146.24 76.438 146.263 76.5414 146.328C78.3719 147.585 79.8782 149.258 80.9369 151.21C93.7164 174.043 70.5983 222.65 111.339 226.76C131.585 228.845 149.134 216.634 161.505 200.136C161.683 199.867 161.889 199.656 162.057 199.401C162.129 199.302 162.236 199.235 162.356 199.213C162.477 199.191 162.601 199.218 162.702 199.286C162.803 199.354 162.875 199.459 162.9 199.578C162.927 199.697 162.906 199.822 162.842 199.926C162.641 200.228 162.445 200.426 162.276 200.68C150.87 215.887 134.845 227.931 115.771 227.931Z" fill="#101828"/>
<path d="M171.183 178.304C173.706 173.805 176.632 169.544 179.924 165.573C182.866 162.09 186.112 158.877 189.625 155.973C196.485 150.486 207.466 143.465 214.977 148.019C216.096 148.722 217.071 149.628 217.852 150.693C219.3 152.796 220.435 155.099 221.222 157.528C221.249 157.644 221.231 157.764 221.172 157.868C221.113 157.97 221.019 158.047 220.906 158.084C220.793 158.12 220.672 158.112 220.564 158.062C220.457 158.013 220.372 157.925 220.326 157.816C219.567 155.478 218.475 153.262 217.083 151.237C211.871 144.069 201.738 148.529 194.427 153.531C193.025 154.465 191.595 155.61 190.212 156.716C186.748 159.583 183.547 162.753 180.644 166.188C177.398 170.108 174.511 174.313 172.018 178.751C171.959 178.861 171.858 178.944 171.737 178.98C171.617 179.017 171.488 179.004 171.378 178.944C171.266 178.885 171.184 178.784 171.147 178.665C171.112 178.545 171.124 178.414 171.183 178.304Z" fill="#101828"/>
<path d="M183.775 190.135C183.674 190.135 183.576 190.103 183.496 190.043C183.415 189.983 183.355 189.899 183.324 189.803C183.295 189.707 183.296 189.605 183.329 189.509C183.361 189.414 183.424 189.332 183.506 189.275C185.948 187.585 187.264 186.542 189.734 184.84C200.127 177.679 211.046 170.824 213.896 158.6C214.57 155.533 214.726 152.374 214.357 149.256C214.191 146.557 213.535 143.91 212.42 141.448C212.373 141.336 212.371 141.21 212.414 141.097C212.457 140.983 212.543 140.891 212.652 140.838C212.762 140.786 212.887 140.778 213.002 140.815C213.118 140.854 213.214 140.934 213.271 141.041C214.438 143.61 215.125 146.369 215.299 149.185C215.68 152.394 215.518 155.643 214.819 158.798C211.882 171.396 200.842 178.333 190.271 185.617C187.066 187.825 184.115 190.135 183.775 190.135Z" fill="#101828"/>
<path d="M183.585 189.757C183.114 189.286 182.547 188.909 182.075 189.192C181.1 189.834 180.184 190.563 179.338 191.368C177.295 193.094 174.917 194.379 172.353 195.144C168.513 196.104 165.051 190.88 168.012 185.327C170.509 181.331 172.949 180.785 172.07 179.38C171.803 179.049 171.484 178.763 171.127 178.532C170.822 178.227 170.472 177.972 170.089 177.777C167.82 179.959 165.736 182.327 163.859 184.855C162.73 186.344 162.162 188.182 162.254 190.047C162.422 191.164 162.842 192.229 163.482 193.161C163.941 193.67 164.265 194.286 164.425 194.953C164.553 196.233 161.747 197.491 161.971 198.162C162.213 198.623 162.57 199.013 163.009 199.295C163.269 199.544 163.553 199.766 163.859 199.955C164.992 200.238 165.841 197.69 166.973 197.779C167.698 197.924 169.134 199.762 171.505 199.762C172.983 199.791 174.433 199.363 175.657 198.534C177.763 197.335 179.753 195.945 181.604 194.382C182.461 193.636 184.152 192.494 184.341 191.267C184.227 190.706 183.965 190.185 183.585 189.757Z" fill="#0BA5EC"/>
<path d="M53.6168 113.212C52.7605 113.212 38.1378 106.74 24.8578 100.265C22.0239 98.8825 21.7602 98.6995 21.8882 98.2169C22.0367 97.6588 23.0402 97.687 23.0402 98.3039C23.1682 98.3795 23.0402 98.3398 32.2255 102.931C53.9061 113.057 54.422 111.972 54.0623 112.915C54.0267 113.004 53.9651 113.08 53.8855 113.133C53.806 113.186 53.7125 113.213 53.6168 113.212Z" fill="#101828"/>
<path d="M50.9171 101.061C39.2845 93.9672 29.7139 84.805 19.5277 76.485C19.4307 76.4056 19.369 76.2911 19.3564 76.1664C19.3437 76.0417 19.3813 75.917 19.4605 75.82C19.5397 75.7229 19.6544 75.6613 19.7791 75.6486C19.9037 75.6361 20.0284 75.6734 20.1254 75.7528C30.359 84.1112 39.881 93.2274 51.4086 100.256C51.5084 100.324 51.578 100.428 51.6033 100.547C51.6286 100.665 51.6076 100.788 51.5446 100.891C51.4816 100.995 51.3814 101.07 51.2646 101.101C51.1479 101.133 51.0235 101.118 50.9171 101.061Z" fill="#101828"/>
<path d="M61.952 98.8095C55.5597 91.9525 44.7655 79.0975 40.4595 71.4405C40.3989 71.3316 40.3838 71.2032 40.4176 71.0833C40.4515 70.9632 40.5313 70.8616 40.64 70.8005C41.5501 70.2885 40.64 71.3471 48.1331 80.9266C52.6788 86.9121 57.5212 92.6665 62.6419 98.1682C62.7162 98.2613 62.7525 98.379 62.7437 98.4978C62.7349 98.6165 62.6815 98.7276 62.5942 98.8086C62.507 98.8896 62.3923 98.9348 62.2733 98.9349C62.1543 98.9352 62.0394 98.8902 61.952 98.8095Z" fill="#101828"/>
</svg>
