<svg width="200" height="200" viewBox="0 0 200 200" fill="none" xmlns="http://www.w3.org/2000/svg">
<g id="Exhibitor">
<path d="M0.5 4C0.5 2.067 2.067 0.5 4 0.5H196C197.933 0.5 199.5 2.067 199.5 4V196C199.5 197.933 197.933 199.5 196 199.5H4C2.067 199.5 0.5 197.933 0.5 196V4Z" fill="#5434D4" fill-opacity="0.1"/>
<g id="Mask Group">
<g id="Vector">
<path d="M29.048 22.4719H22.8457V28.6742H29.048V22.4719Z" fill="black"/>
<path d="M35.2502 22.4719H29.048V28.6742H35.2502V22.4719Z" fill="black"/>
<path d="M41.4525 22.4719H35.2502V28.6742H41.4525V22.4719Z" fill="black"/>
<path d="M47.6547 22.4719H41.4525V28.6742H47.6547V22.4719Z" fill="black"/>
<path d="M53.857 22.4719H47.6547V28.6742H53.857V22.4719Z" fill="black"/>
<path d="M60.0592 22.4719H53.857V28.6742H60.0592V22.4719Z" fill="black"/>
<path d="M66.2615 22.4719H60.0592V28.6742H66.2615V22.4719Z" fill="black"/>
<path d="M78.666 22.4719H72.4637V28.6742H78.666V22.4719Z" fill="black"/>
<path d="M84.8682 22.4719H78.666V28.6742H84.8682V22.4719Z" fill="black"/>
<path d="M109.677 22.4719H103.475V28.6742H109.677V22.4719Z" fill="black"/>
<path d="M128.284 22.4719H122.082V28.6742H128.284V22.4719Z" fill="black"/>
<path d="M140.688 22.4719H134.486V28.6742H140.688V22.4719Z" fill="black"/>
<path d="M146.891 22.4719H140.688V28.6742H146.891V22.4719Z" fill="black"/>
<path d="M153.093 22.4719H146.891V28.6742H153.093V22.4719Z" fill="black"/>
<path d="M159.295 22.4719H153.093V28.6742H159.295V22.4719Z" fill="black"/>
<path d="M165.498 22.4719H159.295V28.6742H165.498V22.4719Z" fill="black"/>
<path d="M171.7 22.4719H165.498V28.6742H171.7V22.4719Z" fill="black"/>
<path d="M177.902 22.4719H171.7V28.6742H177.902V22.4719Z" fill="black"/>
<path d="M29.048 28.6742H22.8457V34.8764H29.048V28.6742Z" fill="black"/>
<path d="M66.2615 28.6742H60.0592L60.0592 34.8764H66.2615V28.6742Z" fill="black"/>
<path d="M103.475 28.6742H97.2727V34.8764H103.475V28.6742Z" fill="black"/>
<path d="M109.677 28.6742H103.475V34.8764H109.677V28.6742Z" fill="black"/>
<path d="M128.284 28.6742H122.082V34.8764H128.284V28.6742Z" fill="black"/>
<path d="M140.688 28.6742H134.486V34.8764H140.688V28.6742Z" fill="black"/>
<path d="M177.902 28.6742H171.7V34.8764H177.902V28.6742Z" fill="black"/>
<path d="M29.048 34.8764H22.8457V41.0787H29.048V34.8764Z" fill="black"/>
<path d="M41.4525 34.8764H35.2502V41.0787H41.4525V34.8764Z" fill="black"/>
<path d="M47.6547 34.8764H41.4525V41.0787H47.6547V34.8764Z" fill="black"/>
<path d="M53.857 34.8764H47.6547V41.0787H53.857V34.8764Z" fill="black"/>
<path d="M66.2615 34.8764H60.0592V41.0787H66.2615V34.8764Z" fill="black"/>
<path d="M84.8682 34.8764H78.666V41.0787H84.8682V34.8764Z" fill="black"/>
<path d="M91.0705 34.8764H84.8682V41.0787H91.0705V34.8764Z" fill="black"/>
<path d="M97.2727 34.8764H91.0705V41.0787H97.2727V34.8764Z" fill="black"/>
<path d="M103.475 34.8764H97.2727V41.0787H103.475V34.8764Z" fill="black"/>
<path d="M109.677 34.8764H103.475V41.0787H109.677V34.8764Z" fill="black"/>
<path d="M128.284 34.8764H122.082V41.0787H128.284V34.8764Z" fill="black"/>
<path d="M140.688 34.8764H134.486V41.0787H140.688V34.8764Z" fill="black"/>
<path d="M153.093 34.8764H146.891V41.0787H153.093V34.8764Z" fill="black"/>
<path d="M159.295 34.8764H153.093V41.0787H159.295V34.8764Z" fill="black"/>
<path d="M165.498 34.8764H159.295V41.0787H165.498V34.8764Z" fill="black"/>
<path d="M177.902 34.8764H171.7V41.0787H177.902V34.8764Z" fill="black"/>
<path d="M29.048 41.0787H22.8457V47.2809H29.048V41.0787Z" fill="black"/>
<path d="M41.4525 41.0787H35.2502V47.2809H41.4525V41.0787Z" fill="black"/>
<path d="M47.6547 41.0787H41.4525V47.2809H47.6547V41.0787Z" fill="black"/>
<path d="M53.857 41.0787H47.6547V47.2809H53.857V41.0787Z" fill="black"/>
<path d="M66.2615 41.0787H60.0592V47.2809H66.2615V41.0787Z" fill="black"/>
<path d="M84.8682 41.0787H78.666V47.2809H84.8682V41.0787Z" fill="black"/>
<path d="M91.0705 41.0787H84.8682V47.2809H91.0705V41.0787Z" fill="black"/>
<path d="M109.677 41.0787H103.475V47.2809H109.677V41.0787Z" fill="black"/>
<path d="M140.688 41.0787H134.486V47.2809H140.688V41.0787Z" fill="black"/>
<path d="M153.093 41.0787H146.891V47.2809H153.093V41.0787Z" fill="black"/>
<path d="M159.295 41.0787H153.093V47.2809H159.295V41.0787Z" fill="black"/>
<path d="M165.498 41.0787H159.295V47.2809H165.498V41.0787Z" fill="black"/>
<path d="M177.902 41.0787H171.7V47.2809H177.902V41.0787Z" fill="black"/>
<path d="M29.048 47.2809H22.8457V53.4832H29.048V47.2809Z" fill="black"/>
<path d="M41.4525 47.2809H35.2502V53.4832H41.4525V47.2809Z" fill="black"/>
<path d="M47.6547 47.2809H41.4525V53.4832H47.6547V47.2809Z" fill="black"/>
<path d="M53.857 47.2809H47.6547V53.4832H53.857V47.2809Z" fill="black"/>
<path d="M66.2615 47.2809H60.0592V53.4832H66.2615V47.2809Z" fill="black"/>
<path d="M78.666 47.2809H72.4637V53.4832H78.666V47.2809Z" fill="black"/>
<path d="M91.0705 47.2809H84.8682V53.4832H91.0705V47.2809Z" fill="black"/>
<path d="M97.2727 47.2809H91.0705V53.4832H97.2727V47.2809Z" fill="black"/>
<path d="M103.475 47.2809H97.2727V53.4832H103.475V47.2809Z" fill="black"/>
<path d="M115.879 47.2809H109.677V53.4832H115.879V47.2809Z" fill="black"/>
<path d="M140.688 47.2809H134.486V53.4832H140.688V47.2809Z" fill="black"/>
<path d="M153.093 47.2809H146.891V53.4832H153.093V47.2809Z" fill="black"/>
<path d="M159.295 47.2809H153.093V53.4832H159.295V47.2809Z" fill="black"/>
<path d="M165.498 47.2809H159.295V53.4832H165.498V47.2809Z" fill="black"/>
<path d="M177.902 47.2809H171.7V53.4832H177.902V47.2809Z" fill="black"/>
<path d="M29.048 53.4832H22.8457V59.6854H29.048V53.4832Z" fill="black"/>
<path d="M66.2615 53.4832H60.0592V59.6854H66.2615V53.4832Z" fill="black"/>
<path d="M115.879 53.4832H109.677V59.6854H115.879V53.4832Z" fill="black"/>
<path d="M140.688 53.4832H134.486V59.6854H140.688V53.4832Z" fill="black"/>
<path d="M177.902 53.4832H171.7V59.6854H177.902V53.4832Z" fill="black"/>
<path d="M29.048 59.6854H22.8457V65.8877H29.048V59.6854Z" fill="black"/>
<path d="M35.2502 59.6854L29.048 59.6854V65.8877H35.2502V59.6854Z" fill="black"/>
<path d="M41.4525 59.6854H35.2502V65.8877H41.4525V59.6854Z" fill="black"/>
<path d="M47.6547 59.6854H41.4525V65.8877H47.6547V59.6854Z" fill="black"/>
<path d="M53.857 59.6854H47.6547V65.8877H53.857V59.6854Z" fill="black"/>
<path d="M60.0592 59.6854L53.857 59.6854V65.8877H60.0592L60.0592 59.6854Z" fill="black"/>
<path d="M66.2615 59.6854H60.0592L60.0592 65.8877H66.2615V59.6854Z" fill="black"/>
<path d="M78.666 59.6854H72.4637V65.8877H78.666V59.6854Z" fill="black"/>
<path d="M91.0705 59.6854H84.8682V65.8877H91.0705V59.6854Z" fill="black"/>
<path d="M103.475 59.6854H97.2727V65.8877H103.475V59.6854Z" fill="black"/>
<path d="M115.879 59.6854H109.677V65.8877H115.879V59.6854Z" fill="black"/>
<path d="M128.284 59.6854H122.082V65.8877H128.284V59.6854Z" fill="black"/>
<path d="M140.688 59.6854H134.486V65.8877H140.688V59.6854Z" fill="black"/>
<path d="M146.891 59.6854L140.688 59.6854V65.8877H146.891V59.6854Z" fill="black"/>
<path d="M153.093 59.6854H146.891V65.8877H153.093V59.6854Z" fill="black"/>
<path d="M159.295 59.6854H153.093V65.8877H159.295V59.6854Z" fill="black"/>
<path d="M165.498 59.6854H159.295V65.8877H165.498V59.6854Z" fill="black"/>
<path d="M171.7 59.6854L165.498 59.6854V65.8877H171.7V59.6854Z" fill="black"/>
<path d="M177.902 59.6854H171.7V65.8877H177.902V59.6854Z" fill="black"/>
<path d="M78.666 65.8877H72.4637V72.0899H78.666V65.8877Z" fill="black"/>
<path d="M91.0705 65.8877H84.8682V72.0899H91.0705V65.8877Z" fill="black"/>
<path d="M103.475 65.8877H97.2727V72.0899H103.475V65.8877Z" fill="black"/>
<path d="M109.677 65.8877H103.475V72.0899H109.677V65.8877Z" fill="black"/>
<path d="M122.082 65.8877H115.879L115.88 72.0899H122.082V65.8877Z" fill="black"/>
<path d="M128.284 65.8877H122.082V72.0899H128.284V65.8877Z" fill="black"/>
<path d="M29.048 72.0899H22.8457V78.2922H29.048V72.0899Z" fill="black"/>
<path d="M47.6547 72.0899H41.4525V78.2922H47.6547V72.0899Z" fill="black"/>
<path d="M53.857 72.0899H47.6547V78.2922H53.857V72.0899Z" fill="black"/>
<path d="M60.0592 72.0899H53.857V78.2922H60.0592V72.0899Z" fill="black"/>
<path d="M66.2615 72.0899H60.0592V78.2922H66.2615V72.0899Z" fill="black"/>
<path d="M72.4637 72.0899H66.2615V78.2922H72.4637V72.0899Z" fill="black"/>
<path d="M78.666 72.0899H72.4637V78.2922H78.666V72.0899Z" fill="black"/>
<path d="M84.8682 72.0899H78.666V78.2922H84.8682V72.0899Z" fill="black"/>
<path d="M109.677 72.0899H103.475V78.2922H109.677V72.0899Z" fill="black"/>
<path d="M128.284 72.0899H122.082V78.2922H128.284V72.0899Z" fill="black"/>
<path d="M134.486 72.0899H128.284V78.2922H134.486V72.0899Z" fill="black"/>
<path d="M140.688 72.0899H134.486V78.2922H140.688V72.0899Z" fill="black"/>
<path d="M153.093 72.0899H146.891V78.2922H153.093V72.0899Z" fill="black"/>
<path d="M177.902 72.0899H171.7V78.2922H177.902V72.0899Z" fill="black"/>
<path d="M35.2502 78.2922H29.048V84.4944H35.2502V78.2922Z" fill="black"/>
<path d="M47.6547 78.2922H41.4525V84.4944H47.6547V78.2922Z" fill="black"/>
<path d="M53.857 78.2922H47.6547V84.4944H53.857V78.2922Z" fill="black"/>
<path d="M72.4637 78.2922H66.2615V84.4944H72.4637V78.2922Z" fill="black"/>
<path d="M78.666 78.2922H72.4637V84.4944H78.666V78.2922Z" fill="black"/>
<path d="M103.475 78.2922H97.2727V84.4944H103.475V78.2922Z" fill="black"/>
<path d="M122.082 78.2922H115.88V84.4944H122.082V78.2922Z" fill="black"/>
<path d="M134.486 78.2922H128.284V84.4944H134.486V78.2922Z" fill="black"/>
<path d="M140.688 78.2922H134.486V84.4944H140.688V78.2922Z" fill="black"/>
<path d="M153.093 78.2922H146.891V84.4944H153.093V78.2922Z" fill="black"/>
<path d="M159.295 78.2922H153.093V84.4944H159.295V78.2922Z" fill="black"/>
<path d="M165.498 78.2922H159.295V84.4944H165.498V78.2922Z" fill="black"/>
<path d="M171.7 78.2922H165.498V84.4944H171.7V78.2922Z" fill="black"/>
<path d="M177.902 78.2922H171.7V84.4944H177.902V78.2922Z" fill="black"/>
<path d="M29.048 84.4944H22.8457V90.6967H29.048V84.4944Z" fill="black"/>
<path d="M35.2502 84.4944H29.048V90.6967H35.2502V84.4944Z" fill="black"/>
<path d="M47.6547 84.4944H41.4525V90.6967H47.6547V84.4944Z" fill="black"/>
<path d="M53.857 84.4944H47.6547V90.6967H53.857V84.4944Z" fill="black"/>
<path d="M60.0592 84.4944H53.857V90.6967H60.0592V84.4944Z" fill="black"/>
<path d="M66.2615 84.4944H60.0592V90.6967H66.2615V84.4944Z" fill="black"/>
<path d="M72.4637 84.4944H66.2615V90.6967H72.4637V84.4944Z" fill="black"/>
<path d="M84.8682 84.4944H78.666V90.6967H84.8682V84.4944Z" fill="black"/>
<path d="M97.2727 84.4944H91.0705V90.6967H97.2727V84.4944Z" fill="black"/>
<path d="M103.475 84.4944H97.2727V90.6967H103.475V84.4944Z" fill="black"/>
<path d="M115.88 84.4944H109.677V90.6967H115.879L115.88 84.4944Z" fill="black"/>
<path d="M128.284 84.4944H122.082V90.6967H128.284V84.4944Z" fill="black"/>
<path d="M134.486 84.4944H128.284V90.6967H134.486V84.4944Z" fill="black"/>
<path d="M140.688 84.4944H134.486V90.6967H140.688V84.4944Z" fill="black"/>
<path d="M146.891 84.4944H140.688V90.6967H146.891V84.4944Z" fill="black"/>
<path d="M153.093 84.4944H146.891V90.6967H153.093V84.4944Z" fill="black"/>
<path d="M159.295 84.4944H153.093V90.6967H159.295V84.4944Z" fill="black"/>
<path d="M165.498 84.4944H159.295V90.6967H165.498V84.4944Z" fill="black"/>
<path d="M171.7 84.4944H165.498V90.6967H171.7V84.4944Z" fill="black"/>
<path d="M29.048 90.6967H22.8457V96.8989H29.048V90.6967Z" fill="black"/>
<path d="M53.857 90.6967H47.6547V96.8989H53.857V90.6967Z" fill="black"/>
<path d="M60.0592 90.6967H53.857V96.8989H60.0592V90.6967Z" fill="black"/>
<path d="M72.4637 90.6967H66.2615V96.8989H72.4637V90.6967Z" fill="black"/>
<path d="M84.8682 90.6967H78.666V96.8989H84.8682V90.6967Z" fill="black"/>
<path d="M91.0705 90.6967H84.8682V96.8989H91.0705V90.6967Z" fill="black"/>
<path d="M115.879 90.6967H109.677V96.8989H115.879V90.6967Z" fill="black"/>
<path d="M122.082 90.6967H115.879V96.8989H122.082V90.6967Z" fill="black"/>
<path d="M153.093 90.6967H146.891V96.8989H153.093V90.6967Z" fill="black"/>
<path d="M165.498 90.6967H159.295V96.8989H165.498V90.6967Z" fill="black"/>
<path d="M171.7 90.6967H165.498V96.8989H171.7V90.6967Z" fill="black"/>
<path d="M29.048 96.8989H22.8457V103.101H29.048V96.8989Z" fill="black"/>
<path d="M47.6547 96.8989H41.4525V103.101H47.6547V96.8989Z" fill="black"/>
<path d="M53.857 96.8989H47.6547V103.101H53.857V96.8989Z" fill="black"/>
<path d="M60.0592 96.8989H53.857V103.101H60.0592V96.8989Z" fill="black"/>
<path d="M66.2615 96.8989H60.0592V103.101H66.2615V96.8989Z" fill="black"/>
<path d="M72.4637 96.8989H66.2615V103.101H72.4637V96.8989Z" fill="black"/>
<path d="M78.666 96.8989H72.4637V103.101H78.666V96.8989Z" fill="black"/>
<path d="M91.0705 96.8989H84.8682V103.101H91.0705V96.8989Z" fill="black"/>
<path d="M97.2727 96.8989H91.0705V103.101H97.2727V96.8989Z" fill="black"/>
<path d="M109.677 96.8989H103.475V103.101H109.677V96.8989Z" fill="black"/>
<path d="M115.879 96.8989H109.677V103.101H115.879V96.8989Z" fill="black"/>
<path d="M128.284 96.8989H122.082V103.101H128.284V96.8989Z" fill="black"/>
<path d="M146.891 96.8989H140.688V103.101H146.891V96.8989Z" fill="black"/>
<path d="M159.295 96.8989H153.093V103.101H159.295V96.8989Z" fill="black"/>
<path d="M165.498 96.8989H159.295V103.101H165.498V96.8989Z" fill="black"/>
<path d="M177.902 96.8989H171.7V103.101H177.902V96.8989Z" fill="black"/>
<path d="M29.048 103.101H22.8457V109.303H29.048V103.101Z" fill="black"/>
<path d="M35.2502 103.101H29.048V109.303H35.2502V103.101Z" fill="black"/>
<path d="M72.4637 103.101H66.2615V109.303H72.4637V103.101Z" fill="black"/>
<path d="M78.666 103.101H72.4637V109.303H78.666V103.101Z" fill="black"/>
<path d="M84.8682 103.101H78.666V109.303H84.8682V103.101Z" fill="black"/>
<path d="M103.475 103.101H97.2727V109.303H103.475V103.101Z" fill="black"/>
<path d="M115.879 103.101H109.677V109.303H115.879V103.101Z" fill="black"/>
<path d="M122.082 103.101H115.879V109.303H122.082V103.101Z" fill="black"/>
<path d="M128.284 103.101H122.082V109.303H128.284V103.101Z" fill="black"/>
<path d="M134.486 103.101H128.284V109.303H134.486V103.101Z" fill="black"/>
<path d="M153.093 103.101H146.891V109.303H153.093V103.101Z" fill="black"/>
<path d="M165.498 103.101H159.295V109.303H165.498V103.101Z" fill="black"/>
<path d="M171.7 103.101H165.498V109.303H171.7V103.101Z" fill="black"/>
<path d="M177.902 103.101H171.7V109.303H177.902V103.101Z" fill="black"/>
<path d="M29.048 109.303H22.8457V115.506H29.048V109.303Z" fill="black"/>
<path d="M35.2502 109.303H29.048V115.506H35.2502V109.303Z" fill="black"/>
<path d="M41.4525 109.303H35.2502V115.506H41.4525V109.303Z" fill="black"/>
<path d="M66.2615 109.303H60.0592V115.506H66.2615V109.303Z" fill="black"/>
<path d="M84.8682 109.303H78.666V115.506H84.8682V109.303Z" fill="black"/>
<path d="M97.2727 109.303H91.0705V115.506H97.2727V109.303Z" fill="black"/>
<path d="M103.475 109.303H97.2727V115.506H103.475V109.303Z" fill="black"/>
<path d="M115.879 109.303H109.677V115.506H115.879V109.303Z" fill="black"/>
<path d="M134.486 109.303H128.284V115.506H134.486V109.303Z" fill="black"/>
<path d="M146.891 109.303H140.688V115.506H146.891V109.303Z" fill="black"/>
<path d="M153.093 109.303H146.891V115.506H153.093V109.303Z" fill="black"/>
<path d="M165.498 109.303H159.295V115.506H165.498V109.303Z" fill="black"/>
<path d="M35.2502 115.506H29.048V121.708H35.2502V115.506Z" fill="black"/>
<path d="M72.4637 115.506L66.2615 115.506V121.708H72.4637V115.506Z" fill="black"/>
<path d="M103.475 115.506H97.2727V121.708H103.475V115.506Z" fill="black"/>
<path d="M115.879 115.506H109.677V121.708H115.879V115.506Z" fill="black"/>
<path d="M122.082 115.506L115.879 115.506V121.708H122.082V115.506Z" fill="black"/>
<path d="M140.688 115.506H134.486V121.708H140.688V115.506Z" fill="black"/>
<path d="M153.093 115.506H146.891V121.708H153.093V115.506Z" fill="black"/>
<path d="M171.7 115.506L165.498 115.506V121.708H171.7V115.506Z" fill="black"/>
<path d="M29.048 121.708H22.8457V127.91H29.048V121.708Z" fill="black"/>
<path d="M60.0592 121.708H53.857V127.91H60.0592V121.708Z" fill="black"/>
<path d="M66.2615 121.708H60.0592V127.91H66.2615V121.708Z" fill="black"/>
<path d="M72.4637 121.708H66.2615V127.91H72.4637V121.708Z" fill="black"/>
<path d="M84.8682 121.708H78.666V127.91H84.8682V121.708Z" fill="black"/>
<path d="M91.0705 121.708H84.8682V127.91H91.0705V121.708Z" fill="black"/>
<path d="M103.475 121.708H97.2727V127.91H103.475V121.708Z" fill="black"/>
<path d="M122.082 121.708H115.879L115.88 127.91H122.082V121.708Z" fill="black"/>
<path d="M128.284 121.708H122.082V127.91H128.284V121.708Z" fill="black"/>
<path d="M134.486 121.708H128.284V127.91H134.486V121.708Z" fill="black"/>
<path d="M140.688 121.708H134.486V127.91H140.688V121.708Z" fill="black"/>
<path d="M146.891 121.708H140.688V127.91H146.891V121.708Z" fill="black"/>
<path d="M153.093 121.708H146.891V127.91H153.093V121.708Z" fill="black"/>
<path d="M159.295 121.708H153.093V127.91H159.295V121.708Z" fill="black"/>
<path d="M171.7 121.708H165.498V127.91H171.7V121.708Z" fill="black"/>
<path d="M78.666 127.91H72.4637V134.112H78.666V127.91Z" fill="black"/>
<path d="M91.0705 127.91H84.8682V134.112H91.0705V127.91Z" fill="black"/>
<path d="M103.475 127.91H97.2727V134.112H103.475V127.91Z" fill="black"/>
<path d="M122.082 127.91H115.88V134.112H122.082V127.91Z" fill="black"/>
<path d="M128.284 127.91H122.082V134.112H128.284V127.91Z" fill="black"/>
<path d="M153.093 127.91H146.891V134.112H153.093V127.91Z" fill="black"/>
<path d="M159.295 127.91H153.093V134.112H159.295V127.91Z" fill="black"/>
<path d="M165.498 127.91H159.295V134.112H165.498V127.91Z" fill="black"/>
<path d="M29.048 134.112H22.8457V140.315H29.048V134.112Z" fill="black"/>
<path d="M35.2502 134.112H29.048V140.315H35.2502V134.112Z" fill="black"/>
<path d="M41.4525 134.112H35.2502V140.315H41.4525V134.112Z" fill="black"/>
<path d="M47.6547 134.112H41.4525V140.315H47.6547V134.112Z" fill="black"/>
<path d="M53.857 134.112H47.6547V140.315H53.857V134.112Z" fill="black"/>
<path d="M60.0592 134.112H53.857V140.315H60.0592V134.112Z" fill="black"/>
<path d="M66.2615 134.112H60.0592V140.315H66.2615V134.112Z" fill="black"/>
<path d="M78.666 134.112H72.4637V140.315H78.666V134.112Z" fill="black"/>
<path d="M103.475 134.112H97.2727V140.315H103.475V134.112Z" fill="black"/>
<path d="M122.082 134.112H115.88V140.315H122.082V134.112Z" fill="black"/>
<path d="M128.284 134.112H122.082V140.315H128.284V134.112Z" fill="black"/>
<path d="M140.688 134.112H134.486V140.315H140.688V134.112Z" fill="black"/>
<path d="M153.093 134.112H146.891V140.315H153.093V134.112Z" fill="black"/>
<path d="M159.295 134.112H153.093V140.315H159.295V134.112Z" fill="black"/>
<path d="M165.498 134.112H159.295V140.315H165.498V134.112Z" fill="black"/>
<path d="M177.902 134.112H171.7V140.315H177.902V134.112Z" fill="black"/>
<path d="M29.048 140.315H22.8457V146.517H29.048V140.315Z" fill="black"/>
<path d="M66.2615 140.315H60.0592L60.0592 146.517H66.2615V140.315Z" fill="black"/>
<path d="M78.666 140.315H72.4637V146.517H78.666V140.315Z" fill="black"/>
<path d="M91.0705 140.315H84.8682V146.517H91.0705V140.315Z" fill="black"/>
<path d="M115.88 140.315H109.677V146.517H115.879L115.88 140.315Z" fill="black"/>
<path d="M128.284 140.315H122.082V146.517H128.284V140.315Z" fill="black"/>
<path d="M153.093 140.315H146.891V146.517H153.093V140.315Z" fill="black"/>
<path d="M165.498 140.315H159.295V146.517H165.498V140.315Z" fill="black"/>
<path d="M29.048 146.517H22.8457V152.719H29.048V146.517Z" fill="black"/>
<path d="M41.4525 146.517H35.2502V152.719H41.4525V146.517Z" fill="black"/>
<path d="M47.6547 146.517H41.4525V152.719H47.6547V146.517Z" fill="black"/>
<path d="M53.857 146.517H47.6547V152.719H53.857V146.517Z" fill="black"/>
<path d="M66.2615 146.517H60.0592V152.719H66.2615V146.517Z" fill="black"/>
<path d="M78.666 146.517H72.4637V152.719H78.666V146.517Z" fill="black"/>
<path d="M84.8682 146.517H78.666V152.719H84.8682V146.517Z" fill="black"/>
<path d="M91.0705 146.517H84.8682V152.719H91.0705V146.517Z" fill="black"/>
<path d="M109.677 146.517H103.475V152.719H109.677V146.517Z" fill="black"/>
<path d="M115.879 146.517H109.677V152.719H115.879V146.517Z" fill="black"/>
<path d="M128.284 146.517H122.082V152.719H128.284V146.517Z" fill="black"/>
<path d="M134.486 146.517H128.284V152.719H134.486V146.517Z" fill="black"/>
<path d="M140.688 146.517H134.486V152.719H140.688V146.517Z" fill="black"/>
<path d="M146.891 146.517H140.688V152.719H146.891V146.517Z" fill="black"/>
<path d="M153.093 146.517H146.891V152.719H153.093V146.517Z" fill="black"/>
<path d="M177.902 146.517H171.7V152.719H177.902V146.517Z" fill="black"/>
<path d="M29.048 152.719H22.8457V158.921H29.048V152.719Z" fill="black"/>
<path d="M41.4525 152.719H35.2502V158.921H41.4525V152.719Z" fill="black"/>
<path d="M47.6547 152.719H41.4525V158.921H47.6547V152.719Z" fill="black"/>
<path d="M53.857 152.719H47.6547V158.921H53.857V152.719Z" fill="black"/>
<path d="M66.2615 152.719H60.0592V158.921H66.2615V152.719Z" fill="black"/>
<path d="M78.666 152.719H72.4637V158.921H78.666V152.719Z" fill="black"/>
<path d="M103.475 152.719H97.2727V158.921H103.475V152.719Z" fill="black"/>
<path d="M128.284 152.719H122.082V158.921H128.284V152.719Z" fill="black"/>
<path d="M134.486 152.719H128.284V158.921H134.486V152.719Z" fill="black"/>
<path d="M159.295 152.719H153.093V158.921H159.295V152.719Z" fill="black"/>
<path d="M29.048 158.921H22.8457V165.124H29.048V158.921Z" fill="black"/>
<path d="M41.4525 158.921H35.2502V165.124H41.4525V158.921Z" fill="black"/>
<path d="M47.6547 158.921H41.4525V165.124H47.6547V158.921Z" fill="black"/>
<path d="M53.857 158.921H47.6547V165.124H53.857V158.921Z" fill="black"/>
<path d="M66.2615 158.921H60.0592V165.124H66.2615V158.921Z" fill="black"/>
<path d="M97.2727 158.921H91.0705V165.124H97.2727V158.921Z" fill="black"/>
<path d="M103.475 158.921H97.2727V165.124H103.475V158.921Z" fill="black"/>
<path d="M115.879 158.921H109.677V165.124H115.879V158.921Z" fill="black"/>
<path d="M122.082 158.921H115.879V165.124H122.082V158.921Z" fill="black"/>
<path d="M128.284 158.921H122.082V165.124H128.284V158.921Z" fill="black"/>
<path d="M146.891 158.921H140.688V165.124H146.891V158.921Z" fill="black"/>
<path d="M153.093 158.921H146.891V165.124H153.093V158.921Z" fill="black"/>
<path d="M165.498 158.921H159.295V165.124H165.498V158.921Z" fill="black"/>
<path d="M171.7 158.921H165.498V165.124H171.7V158.921Z" fill="black"/>
<path d="M177.902 158.921H171.7V165.124H177.902V158.921Z" fill="black"/>
<path d="M29.048 165.124H22.8457V171.326H29.048V165.124Z" fill="black"/>
<path d="M66.2615 165.124H60.0592V171.326H66.2615V165.124Z" fill="black"/>
<path d="M84.8682 165.124H78.666V171.326H84.8682V165.124Z" fill="black"/>
<path d="M91.0705 165.124H84.8682V171.326H91.0705V165.124Z" fill="black"/>
<path d="M97.2727 165.124H91.0705V171.326H97.2727V165.124Z" fill="black"/>
<path d="M109.677 165.124H103.475V171.326H109.677V165.124Z" fill="black"/>
<path d="M115.879 165.124H109.677V171.326H115.879V165.124Z" fill="black"/>
<path d="M134.486 165.124H128.284V171.326H134.486V165.124Z" fill="black"/>
<path d="M140.688 165.124H134.486V171.326H140.688V165.124Z" fill="black"/>
<path d="M146.891 165.124H140.688V171.326H146.891V165.124Z" fill="black"/>
<path d="M153.093 165.124H146.891V171.326H153.093V165.124Z" fill="black"/>
<path d="M165.498 165.124H159.295V171.326H165.498V165.124Z" fill="black"/>
<path d="M171.7 165.124H165.498V171.326H171.7V165.124Z" fill="black"/>
<path d="M177.902 165.124H171.7V171.326H177.902V165.124Z" fill="black"/>
<path d="M29.048 171.326H22.8457V177.528H29.048V171.326Z" fill="black"/>
<path d="M35.2502 171.326H29.048V177.528H35.2502V171.326Z" fill="black"/>
<path d="M41.4525 171.326H35.2502V177.528H41.4525V171.326Z" fill="black"/>
<path d="M47.6547 171.326H41.4525V177.528H47.6547V171.326Z" fill="black"/>
<path d="M53.857 171.326H47.6547V177.528H53.857V171.326Z" fill="black"/>
<path d="M60.0592 171.326H53.857V177.528H60.0592L60.0592 171.326Z" fill="black"/>
<path d="M66.2615 171.326H60.0592L60.0592 177.528H66.2615V171.326Z" fill="black"/>
<path d="M78.666 171.326H72.4637V177.528H78.666V171.326Z" fill="black"/>
<path d="M97.2727 171.326H91.0705V177.528H97.2727V171.326Z" fill="black"/>
<path d="M103.475 171.326H97.2727V177.528H103.475V171.326Z" fill="black"/>
<path d="M128.284 171.326H122.082V177.528H128.284V171.326Z" fill="black"/>
<path d="M159.295 171.326H153.093V177.528H159.295V171.326Z" fill="black"/>
<path d="M177.902 171.326H171.7V177.528H177.902V171.326Z" fill="black"/>
</g>
<mask id="mask0_50_4876" style="mask-type:alpha" maskUnits="userSpaceOnUse" x="22" y="22" width="156" height="156">
<g id="Vector_2">
<path d="M29.048 22.4719H22.8457V28.6742H29.048V22.4719Z" fill="black"/>
<path d="M35.2502 22.4719H29.048V28.6742H35.2502V22.4719Z" fill="black"/>
<path d="M41.4525 22.4719H35.2502V28.6742H41.4525V22.4719Z" fill="black"/>
<path d="M47.6547 22.4719H41.4525V28.6742H47.6547V22.4719Z" fill="black"/>
<path d="M53.857 22.4719H47.6547V28.6742H53.857V22.4719Z" fill="black"/>
<path d="M60.0592 22.4719H53.857V28.6742H60.0592V22.4719Z" fill="black"/>
<path d="M66.2615 22.4719H60.0592V28.6742H66.2615V22.4719Z" fill="black"/>
<path d="M78.666 22.4719H72.4637V28.6742H78.666V22.4719Z" fill="black"/>
<path d="M84.8682 22.4719H78.666V28.6742H84.8682V22.4719Z" fill="black"/>
<path d="M109.677 22.4719H103.475V28.6742H109.677V22.4719Z" fill="black"/>
<path d="M128.284 22.4719H122.082V28.6742H128.284V22.4719Z" fill="black"/>
<path d="M140.688 22.4719H134.486V28.6742H140.688V22.4719Z" fill="black"/>
<path d="M146.891 22.4719H140.688V28.6742H146.891V22.4719Z" fill="black"/>
<path d="M153.093 22.4719H146.891V28.6742H153.093V22.4719Z" fill="black"/>
<path d="M159.295 22.4719H153.093V28.6742H159.295V22.4719Z" fill="black"/>
<path d="M165.498 22.4719H159.295V28.6742H165.498V22.4719Z" fill="black"/>
<path d="M171.7 22.4719H165.498V28.6742H171.7V22.4719Z" fill="black"/>
<path d="M177.902 22.4719H171.7V28.6742H177.902V22.4719Z" fill="black"/>
<path d="M29.048 28.6742H22.8457V34.8764H29.048V28.6742Z" fill="black"/>
<path d="M66.2615 28.6742H60.0592L60.0592 34.8764H66.2615V28.6742Z" fill="black"/>
<path d="M103.475 28.6742H97.2727V34.8764H103.475V28.6742Z" fill="black"/>
<path d="M109.677 28.6742H103.475V34.8764H109.677V28.6742Z" fill="black"/>
<path d="M128.284 28.6742H122.082V34.8764H128.284V28.6742Z" fill="black"/>
<path d="M140.688 28.6742H134.486V34.8764H140.688V28.6742Z" fill="black"/>
<path d="M177.902 28.6742H171.7V34.8764H177.902V28.6742Z" fill="black"/>
<path d="M29.048 34.8764H22.8457V41.0787H29.048V34.8764Z" fill="black"/>
<path d="M41.4525 34.8764H35.2502V41.0787H41.4525V34.8764Z" fill="black"/>
<path d="M47.6547 34.8764H41.4525V41.0787H47.6547V34.8764Z" fill="black"/>
<path d="M53.857 34.8764H47.6547V41.0787H53.857V34.8764Z" fill="black"/>
<path d="M66.2615 34.8764H60.0592V41.0787H66.2615V34.8764Z" fill="black"/>
<path d="M84.8682 34.8764H78.666V41.0787H84.8682V34.8764Z" fill="black"/>
<path d="M91.0705 34.8764H84.8682V41.0787H91.0705V34.8764Z" fill="black"/>
<path d="M97.2727 34.8764H91.0705V41.0787H97.2727V34.8764Z" fill="black"/>
<path d="M103.475 34.8764H97.2727V41.0787H103.475V34.8764Z" fill="black"/>
<path d="M109.677 34.8764H103.475V41.0787H109.677V34.8764Z" fill="black"/>
<path d="M128.284 34.8764H122.082V41.0787H128.284V34.8764Z" fill="black"/>
<path d="M140.688 34.8764H134.486V41.0787H140.688V34.8764Z" fill="black"/>
<path d="M153.093 34.8764H146.891V41.0787H153.093V34.8764Z" fill="black"/>
<path d="M159.295 34.8764H153.093V41.0787H159.295V34.8764Z" fill="black"/>
<path d="M165.498 34.8764H159.295V41.0787H165.498V34.8764Z" fill="black"/>
<path d="M177.902 34.8764H171.7V41.0787H177.902V34.8764Z" fill="black"/>
<path d="M29.048 41.0787H22.8457V47.2809H29.048V41.0787Z" fill="black"/>
<path d="M41.4525 41.0787H35.2502V47.2809H41.4525V41.0787Z" fill="black"/>
<path d="M47.6547 41.0787H41.4525V47.2809H47.6547V41.0787Z" fill="black"/>
<path d="M53.857 41.0787H47.6547V47.2809H53.857V41.0787Z" fill="black"/>
<path d="M66.2615 41.0787H60.0592V47.2809H66.2615V41.0787Z" fill="black"/>
<path d="M84.8682 41.0787H78.666V47.2809H84.8682V41.0787Z" fill="black"/>
<path d="M91.0705 41.0787H84.8682V47.2809H91.0705V41.0787Z" fill="black"/>
<path d="M109.677 41.0787H103.475V47.2809H109.677V41.0787Z" fill="black"/>
<path d="M140.688 41.0787H134.486V47.2809H140.688V41.0787Z" fill="black"/>
<path d="M153.093 41.0787H146.891V47.2809H153.093V41.0787Z" fill="black"/>
<path d="M159.295 41.0787H153.093V47.2809H159.295V41.0787Z" fill="black"/>
<path d="M165.498 41.0787H159.295V47.2809H165.498V41.0787Z" fill="black"/>
<path d="M177.902 41.0787H171.7V47.2809H177.902V41.0787Z" fill="black"/>
<path d="M29.048 47.2809H22.8457V53.4832H29.048V47.2809Z" fill="black"/>
<path d="M41.4525 47.2809H35.2502V53.4832H41.4525V47.2809Z" fill="black"/>
<path d="M47.6547 47.2809H41.4525V53.4832H47.6547V47.2809Z" fill="black"/>
<path d="M53.857 47.2809H47.6547V53.4832H53.857V47.2809Z" fill="black"/>
<path d="M66.2615 47.2809H60.0592V53.4832H66.2615V47.2809Z" fill="black"/>
<path d="M78.666 47.2809H72.4637V53.4832H78.666V47.2809Z" fill="black"/>
<path d="M91.0705 47.2809H84.8682V53.4832H91.0705V47.2809Z" fill="black"/>
<path d="M97.2727 47.2809H91.0705V53.4832H97.2727V47.2809Z" fill="black"/>
<path d="M103.475 47.2809H97.2727V53.4832H103.475V47.2809Z" fill="black"/>
<path d="M115.879 47.2809H109.677V53.4832H115.879V47.2809Z" fill="black"/>
<path d="M140.688 47.2809H134.486V53.4832H140.688V47.2809Z" fill="black"/>
<path d="M153.093 47.2809H146.891V53.4832H153.093V47.2809Z" fill="black"/>
<path d="M159.295 47.2809H153.093V53.4832H159.295V47.2809Z" fill="black"/>
<path d="M165.498 47.2809H159.295V53.4832H165.498V47.2809Z" fill="black"/>
<path d="M177.902 47.2809H171.7V53.4832H177.902V47.2809Z" fill="black"/>
<path d="M29.048 53.4832H22.8457V59.6854H29.048V53.4832Z" fill="black"/>
<path d="M66.2615 53.4832H60.0592V59.6854H66.2615V53.4832Z" fill="black"/>
<path d="M115.879 53.4832H109.677V59.6854H115.879V53.4832Z" fill="black"/>
<path d="M140.688 53.4832H134.486V59.6854H140.688V53.4832Z" fill="black"/>
<path d="M177.902 53.4832H171.7V59.6854H177.902V53.4832Z" fill="black"/>
<path d="M29.048 59.6854H22.8457V65.8877H29.048V59.6854Z" fill="black"/>
<path d="M35.2502 59.6854L29.048 59.6854V65.8877H35.2502V59.6854Z" fill="black"/>
<path d="M41.4525 59.6854H35.2502V65.8877H41.4525V59.6854Z" fill="black"/>
<path d="M47.6547 59.6854H41.4525V65.8877H47.6547V59.6854Z" fill="black"/>
<path d="M53.857 59.6854H47.6547V65.8877H53.857V59.6854Z" fill="black"/>
<path d="M60.0592 59.6854L53.857 59.6854V65.8877H60.0592L60.0592 59.6854Z" fill="black"/>
<path d="M66.2615 59.6854H60.0592L60.0592 65.8877H66.2615V59.6854Z" fill="black"/>
<path d="M78.666 59.6854H72.4637V65.8877H78.666V59.6854Z" fill="black"/>
<path d="M91.0705 59.6854H84.8682V65.8877H91.0705V59.6854Z" fill="black"/>
<path d="M103.475 59.6854H97.2727V65.8877H103.475V59.6854Z" fill="black"/>
<path d="M115.879 59.6854H109.677V65.8877H115.879V59.6854Z" fill="black"/>
<path d="M128.284 59.6854H122.082V65.8877H128.284V59.6854Z" fill="black"/>
<path d="M140.688 59.6854H134.486V65.8877H140.688V59.6854Z" fill="black"/>
<path d="M146.891 59.6854L140.688 59.6854V65.8877H146.891V59.6854Z" fill="black"/>
<path d="M153.093 59.6854H146.891V65.8877H153.093V59.6854Z" fill="black"/>
<path d="M159.295 59.6854H153.093V65.8877H159.295V59.6854Z" fill="black"/>
<path d="M165.498 59.6854H159.295V65.8877H165.498V59.6854Z" fill="black"/>
<path d="M171.7 59.6854L165.498 59.6854V65.8877H171.7V59.6854Z" fill="black"/>
<path d="M177.902 59.6854H171.7V65.8877H177.902V59.6854Z" fill="black"/>
<path d="M78.666 65.8877H72.4637V72.0899H78.666V65.8877Z" fill="black"/>
<path d="M91.0705 65.8877H84.8682V72.0899H91.0705V65.8877Z" fill="black"/>
<path d="M103.475 65.8877H97.2727V72.0899H103.475V65.8877Z" fill="black"/>
<path d="M109.677 65.8877H103.475V72.0899H109.677V65.8877Z" fill="black"/>
<path d="M122.082 65.8877H115.879L115.88 72.0899H122.082V65.8877Z" fill="black"/>
<path d="M128.284 65.8877H122.082V72.0899H128.284V65.8877Z" fill="black"/>
<path d="M29.048 72.0899H22.8457V78.2922H29.048V72.0899Z" fill="black"/>
<path d="M47.6547 72.0899H41.4525V78.2922H47.6547V72.0899Z" fill="black"/>
<path d="M53.857 72.0899H47.6547V78.2922H53.857V72.0899Z" fill="black"/>
<path d="M60.0592 72.0899H53.857V78.2922H60.0592V72.0899Z" fill="black"/>
<path d="M66.2615 72.0899H60.0592V78.2922H66.2615V72.0899Z" fill="black"/>
<path d="M72.4637 72.0899H66.2615V78.2922H72.4637V72.0899Z" fill="black"/>
<path d="M78.666 72.0899H72.4637V78.2922H78.666V72.0899Z" fill="black"/>
<path d="M84.8682 72.0899H78.666V78.2922H84.8682V72.0899Z" fill="black"/>
<path d="M109.677 72.0899H103.475V78.2922H109.677V72.0899Z" fill="black"/>
<path d="M128.284 72.0899H122.082V78.2922H128.284V72.0899Z" fill="black"/>
<path d="M134.486 72.0899H128.284V78.2922H134.486V72.0899Z" fill="black"/>
<path d="M140.688 72.0899H134.486V78.2922H140.688V72.0899Z" fill="black"/>
<path d="M153.093 72.0899H146.891V78.2922H153.093V72.0899Z" fill="black"/>
<path d="M177.902 72.0899H171.7V78.2922H177.902V72.0899Z" fill="black"/>
<path d="M35.2502 78.2922H29.048V84.4944H35.2502V78.2922Z" fill="black"/>
<path d="M47.6547 78.2922H41.4525V84.4944H47.6547V78.2922Z" fill="black"/>
<path d="M53.857 78.2922H47.6547V84.4944H53.857V78.2922Z" fill="black"/>
<path d="M72.4637 78.2922H66.2615V84.4944H72.4637V78.2922Z" fill="black"/>
<path d="M78.666 78.2922H72.4637V84.4944H78.666V78.2922Z" fill="black"/>
<path d="M103.475 78.2922H97.2727V84.4944H103.475V78.2922Z" fill="black"/>
<path d="M122.082 78.2922H115.88V84.4944H122.082V78.2922Z" fill="black"/>
<path d="M134.486 78.2922H128.284V84.4944H134.486V78.2922Z" fill="black"/>
<path d="M140.688 78.2922H134.486V84.4944H140.688V78.2922Z" fill="black"/>
<path d="M153.093 78.2922H146.891V84.4944H153.093V78.2922Z" fill="black"/>
<path d="M159.295 78.2922H153.093V84.4944H159.295V78.2922Z" fill="black"/>
<path d="M165.498 78.2922H159.295V84.4944H165.498V78.2922Z" fill="black"/>
<path d="M171.7 78.2922H165.498V84.4944H171.7V78.2922Z" fill="black"/>
<path d="M177.902 78.2922H171.7V84.4944H177.902V78.2922Z" fill="black"/>
<path d="M29.048 84.4944H22.8457V90.6967H29.048V84.4944Z" fill="black"/>
<path d="M35.2502 84.4944H29.048V90.6967H35.2502V84.4944Z" fill="black"/>
<path d="M47.6547 84.4944H41.4525V90.6967H47.6547V84.4944Z" fill="black"/>
<path d="M53.857 84.4944H47.6547V90.6967H53.857V84.4944Z" fill="black"/>
<path d="M60.0592 84.4944H53.857V90.6967H60.0592V84.4944Z" fill="black"/>
<path d="M66.2615 84.4944H60.0592V90.6967H66.2615V84.4944Z" fill="black"/>
<path d="M72.4637 84.4944H66.2615V90.6967H72.4637V84.4944Z" fill="black"/>
<path d="M84.8682 84.4944H78.666V90.6967H84.8682V84.4944Z" fill="black"/>
<path d="M97.2727 84.4944H91.0705V90.6967H97.2727V84.4944Z" fill="black"/>
<path d="M103.475 84.4944H97.2727V90.6967H103.475V84.4944Z" fill="black"/>
<path d="M115.88 84.4944H109.677V90.6967H115.879L115.88 84.4944Z" fill="black"/>
<path d="M128.284 84.4944H122.082V90.6967H128.284V84.4944Z" fill="black"/>
<path d="M134.486 84.4944H128.284V90.6967H134.486V84.4944Z" fill="black"/>
<path d="M140.688 84.4944H134.486V90.6967H140.688V84.4944Z" fill="black"/>
<path d="M146.891 84.4944H140.688V90.6967H146.891V84.4944Z" fill="black"/>
<path d="M153.093 84.4944H146.891V90.6967H153.093V84.4944Z" fill="black"/>
<path d="M159.295 84.4944H153.093V90.6967H159.295V84.4944Z" fill="black"/>
<path d="M165.498 84.4944H159.295V90.6967H165.498V84.4944Z" fill="black"/>
<path d="M171.7 84.4944H165.498V90.6967H171.7V84.4944Z" fill="black"/>
<path d="M29.048 90.6967H22.8457V96.8989H29.048V90.6967Z" fill="black"/>
<path d="M53.857 90.6967H47.6547V96.8989H53.857V90.6967Z" fill="black"/>
<path d="M60.0592 90.6967H53.857V96.8989H60.0592V90.6967Z" fill="black"/>
<path d="M72.4637 90.6967H66.2615V96.8989H72.4637V90.6967Z" fill="black"/>
<path d="M84.8682 90.6967H78.666V96.8989H84.8682V90.6967Z" fill="black"/>
<path d="M91.0705 90.6967H84.8682V96.8989H91.0705V90.6967Z" fill="black"/>
<path d="M115.879 90.6967H109.677V96.8989H115.879V90.6967Z" fill="black"/>
<path d="M122.082 90.6967H115.879V96.8989H122.082V90.6967Z" fill="black"/>
<path d="M153.093 90.6967H146.891V96.8989H153.093V90.6967Z" fill="black"/>
<path d="M165.498 90.6967H159.295V96.8989H165.498V90.6967Z" fill="black"/>
<path d="M171.7 90.6967H165.498V96.8989H171.7V90.6967Z" fill="black"/>
<path d="M29.048 96.8989H22.8457V103.101H29.048V96.8989Z" fill="black"/>
<path d="M47.6547 96.8989H41.4525V103.101H47.6547V96.8989Z" fill="black"/>
<path d="M53.857 96.8989H47.6547V103.101H53.857V96.8989Z" fill="black"/>
<path d="M60.0592 96.8989H53.857V103.101H60.0592V96.8989Z" fill="black"/>
<path d="M66.2615 96.8989H60.0592V103.101H66.2615V96.8989Z" fill="black"/>
<path d="M72.4637 96.8989H66.2615V103.101H72.4637V96.8989Z" fill="black"/>
<path d="M78.666 96.8989H72.4637V103.101H78.666V96.8989Z" fill="black"/>
<path d="M91.0705 96.8989H84.8682V103.101H91.0705V96.8989Z" fill="black"/>
<path d="M97.2727 96.8989H91.0705V103.101H97.2727V96.8989Z" fill="black"/>
<path d="M109.677 96.8989H103.475V103.101H109.677V96.8989Z" fill="black"/>
<path d="M115.879 96.8989H109.677V103.101H115.879V96.8989Z" fill="black"/>
<path d="M128.284 96.8989H122.082V103.101H128.284V96.8989Z" fill="black"/>
<path d="M146.891 96.8989H140.688V103.101H146.891V96.8989Z" fill="black"/>
<path d="M159.295 96.8989H153.093V103.101H159.295V96.8989Z" fill="black"/>
<path d="M165.498 96.8989H159.295V103.101H165.498V96.8989Z" fill="black"/>
<path d="M177.902 96.8989H171.7V103.101H177.902V96.8989Z" fill="black"/>
<path d="M29.048 103.101H22.8457V109.303H29.048V103.101Z" fill="black"/>
<path d="M35.2502 103.101H29.048V109.303H35.2502V103.101Z" fill="black"/>
<path d="M72.4637 103.101H66.2615V109.303H72.4637V103.101Z" fill="black"/>
<path d="M78.666 103.101H72.4637V109.303H78.666V103.101Z" fill="black"/>
<path d="M84.8682 103.101H78.666V109.303H84.8682V103.101Z" fill="black"/>
<path d="M103.475 103.101H97.2727V109.303H103.475V103.101Z" fill="black"/>
<path d="M115.879 103.101H109.677V109.303H115.879V103.101Z" fill="black"/>
<path d="M122.082 103.101H115.879V109.303H122.082V103.101Z" fill="black"/>
<path d="M128.284 103.101H122.082V109.303H128.284V103.101Z" fill="black"/>
<path d="M134.486 103.101H128.284V109.303H134.486V103.101Z" fill="black"/>
<path d="M153.093 103.101H146.891V109.303H153.093V103.101Z" fill="black"/>
<path d="M165.498 103.101H159.295V109.303H165.498V103.101Z" fill="black"/>
<path d="M171.7 103.101H165.498V109.303H171.7V103.101Z" fill="black"/>
<path d="M177.902 103.101H171.7V109.303H177.902V103.101Z" fill="black"/>
<path d="M29.048 109.303H22.8457V115.506H29.048V109.303Z" fill="black"/>
<path d="M35.2502 109.303H29.048V115.506H35.2502V109.303Z" fill="black"/>
<path d="M41.4525 109.303H35.2502V115.506H41.4525V109.303Z" fill="black"/>
<path d="M66.2615 109.303H60.0592V115.506H66.2615V109.303Z" fill="black"/>
<path d="M84.8682 109.303H78.666V115.506H84.8682V109.303Z" fill="black"/>
<path d="M97.2727 109.303H91.0705V115.506H97.2727V109.303Z" fill="black"/>
<path d="M103.475 109.303H97.2727V115.506H103.475V109.303Z" fill="black"/>
<path d="M115.879 109.303H109.677V115.506H115.879V109.303Z" fill="black"/>
<path d="M134.486 109.303H128.284V115.506H134.486V109.303Z" fill="black"/>
<path d="M146.891 109.303H140.688V115.506H146.891V109.303Z" fill="black"/>
<path d="M153.093 109.303H146.891V115.506H153.093V109.303Z" fill="black"/>
<path d="M165.498 109.303H159.295V115.506H165.498V109.303Z" fill="black"/>
<path d="M35.2502 115.506H29.048V121.708H35.2502V115.506Z" fill="black"/>
<path d="M72.4637 115.506L66.2615 115.506V121.708H72.4637V115.506Z" fill="black"/>
<path d="M103.475 115.506H97.2727V121.708H103.475V115.506Z" fill="black"/>
<path d="M115.879 115.506H109.677V121.708H115.879V115.506Z" fill="black"/>
<path d="M122.082 115.506L115.879 115.506V121.708H122.082V115.506Z" fill="black"/>
<path d="M140.688 115.506H134.486V121.708H140.688V115.506Z" fill="black"/>
<path d="M153.093 115.506H146.891V121.708H153.093V115.506Z" fill="black"/>
<path d="M171.7 115.506L165.498 115.506V121.708H171.7V115.506Z" fill="black"/>
<path d="M29.048 121.708H22.8457V127.91H29.048V121.708Z" fill="black"/>
<path d="M60.0592 121.708H53.857V127.91H60.0592V121.708Z" fill="black"/>
<path d="M66.2615 121.708H60.0592V127.91H66.2615V121.708Z" fill="black"/>
<path d="M72.4637 121.708H66.2615V127.91H72.4637V121.708Z" fill="black"/>
<path d="M84.8682 121.708H78.666V127.91H84.8682V121.708Z" fill="black"/>
<path d="M91.0705 121.708H84.8682V127.91H91.0705V121.708Z" fill="black"/>
<path d="M103.475 121.708H97.2727V127.91H103.475V121.708Z" fill="black"/>
<path d="M122.082 121.708H115.879L115.88 127.91H122.082V121.708Z" fill="black"/>
<path d="M128.284 121.708H122.082V127.91H128.284V121.708Z" fill="black"/>
<path d="M134.486 121.708H128.284V127.91H134.486V121.708Z" fill="black"/>
<path d="M140.688 121.708H134.486V127.91H140.688V121.708Z" fill="black"/>
<path d="M146.891 121.708H140.688V127.91H146.891V121.708Z" fill="black"/>
<path d="M153.093 121.708H146.891V127.91H153.093V121.708Z" fill="black"/>
<path d="M159.295 121.708H153.093V127.91H159.295V121.708Z" fill="black"/>
<path d="M171.7 121.708H165.498V127.91H171.7V121.708Z" fill="black"/>
<path d="M78.666 127.91H72.4637V134.112H78.666V127.91Z" fill="black"/>
<path d="M91.0705 127.91H84.8682V134.112H91.0705V127.91Z" fill="black"/>
<path d="M103.475 127.91H97.2727V134.112H103.475V127.91Z" fill="black"/>
<path d="M122.082 127.91H115.88V134.112H122.082V127.91Z" fill="black"/>
<path d="M128.284 127.91H122.082V134.112H128.284V127.91Z" fill="black"/>
<path d="M153.093 127.91H146.891V134.112H153.093V127.91Z" fill="black"/>
<path d="M159.295 127.91H153.093V134.112H159.295V127.91Z" fill="black"/>
<path d="M165.498 127.91H159.295V134.112H165.498V127.91Z" fill="black"/>
<path d="M29.048 134.112H22.8457V140.315H29.048V134.112Z" fill="black"/>
<path d="M35.2502 134.112H29.048V140.315H35.2502V134.112Z" fill="black"/>
<path d="M41.4525 134.112H35.2502V140.315H41.4525V134.112Z" fill="black"/>
<path d="M47.6547 134.112H41.4525V140.315H47.6547V134.112Z" fill="black"/>
<path d="M53.857 134.112H47.6547V140.315H53.857V134.112Z" fill="black"/>
<path d="M60.0592 134.112H53.857V140.315H60.0592V134.112Z" fill="black"/>
<path d="M66.2615 134.112H60.0592V140.315H66.2615V134.112Z" fill="black"/>
<path d="M78.666 134.112H72.4637V140.315H78.666V134.112Z" fill="black"/>
<path d="M103.475 134.112H97.2727V140.315H103.475V134.112Z" fill="black"/>
<path d="M122.082 134.112H115.88V140.315H122.082V134.112Z" fill="black"/>
<path d="M128.284 134.112H122.082V140.315H128.284V134.112Z" fill="black"/>
<path d="M140.688 134.112H134.486V140.315H140.688V134.112Z" fill="black"/>
<path d="M153.093 134.112H146.891V140.315H153.093V134.112Z" fill="black"/>
<path d="M159.295 134.112H153.093V140.315H159.295V134.112Z" fill="black"/>
<path d="M165.498 134.112H159.295V140.315H165.498V134.112Z" fill="black"/>
<path d="M177.902 134.112H171.7V140.315H177.902V134.112Z" fill="black"/>
<path d="M29.048 140.315H22.8457V146.517H29.048V140.315Z" fill="black"/>
<path d="M66.2615 140.315H60.0592L60.0592 146.517H66.2615V140.315Z" fill="black"/>
<path d="M78.666 140.315H72.4637V146.517H78.666V140.315Z" fill="black"/>
<path d="M91.0705 140.315H84.8682V146.517H91.0705V140.315Z" fill="black"/>
<path d="M115.88 140.315H109.677V146.517H115.879L115.88 140.315Z" fill="black"/>
<path d="M128.284 140.315H122.082V146.517H128.284V140.315Z" fill="black"/>
<path d="M153.093 140.315H146.891V146.517H153.093V140.315Z" fill="black"/>
<path d="M165.498 140.315H159.295V146.517H165.498V140.315Z" fill="black"/>
<path d="M29.048 146.517H22.8457V152.719H29.048V146.517Z" fill="black"/>
<path d="M41.4525 146.517H35.2502V152.719H41.4525V146.517Z" fill="black"/>
<path d="M47.6547 146.517H41.4525V152.719H47.6547V146.517Z" fill="black"/>
<path d="M53.857 146.517H47.6547V152.719H53.857V146.517Z" fill="black"/>
<path d="M66.2615 146.517H60.0592V152.719H66.2615V146.517Z" fill="black"/>
<path d="M78.666 146.517H72.4637V152.719H78.666V146.517Z" fill="black"/>
<path d="M84.8682 146.517H78.666V152.719H84.8682V146.517Z" fill="black"/>
<path d="M91.0705 146.517H84.8682V152.719H91.0705V146.517Z" fill="black"/>
<path d="M109.677 146.517H103.475V152.719H109.677V146.517Z" fill="black"/>
<path d="M115.879 146.517H109.677V152.719H115.879V146.517Z" fill="black"/>
<path d="M128.284 146.517H122.082V152.719H128.284V146.517Z" fill="black"/>
<path d="M134.486 146.517H128.284V152.719H134.486V146.517Z" fill="black"/>
<path d="M140.688 146.517H134.486V152.719H140.688V146.517Z" fill="black"/>
<path d="M146.891 146.517H140.688V152.719H146.891V146.517Z" fill="black"/>
<path d="M153.093 146.517H146.891V152.719H153.093V146.517Z" fill="black"/>
<path d="M177.902 146.517H171.7V152.719H177.902V146.517Z" fill="black"/>
<path d="M29.048 152.719H22.8457V158.921H29.048V152.719Z" fill="black"/>
<path d="M41.4525 152.719H35.2502V158.921H41.4525V152.719Z" fill="black"/>
<path d="M47.6547 152.719H41.4525V158.921H47.6547V152.719Z" fill="black"/>
<path d="M53.857 152.719H47.6547V158.921H53.857V152.719Z" fill="black"/>
<path d="M66.2615 152.719H60.0592V158.921H66.2615V152.719Z" fill="black"/>
<path d="M78.666 152.719H72.4637V158.921H78.666V152.719Z" fill="black"/>
<path d="M103.475 152.719H97.2727V158.921H103.475V152.719Z" fill="black"/>
<path d="M128.284 152.719H122.082V158.921H128.284V152.719Z" fill="black"/>
<path d="M134.486 152.719H128.284V158.921H134.486V152.719Z" fill="black"/>
<path d="M159.295 152.719H153.093V158.921H159.295V152.719Z" fill="black"/>
<path d="M29.048 158.921H22.8457V165.124H29.048V158.921Z" fill="black"/>
<path d="M41.4525 158.921H35.2502V165.124H41.4525V158.921Z" fill="black"/>
<path d="M47.6547 158.921H41.4525V165.124H47.6547V158.921Z" fill="black"/>
<path d="M53.857 158.921H47.6547V165.124H53.857V158.921Z" fill="black"/>
<path d="M66.2615 158.921H60.0592V165.124H66.2615V158.921Z" fill="black"/>
<path d="M97.2727 158.921H91.0705V165.124H97.2727V158.921Z" fill="black"/>
<path d="M103.475 158.921H97.2727V165.124H103.475V158.921Z" fill="black"/>
<path d="M115.879 158.921H109.677V165.124H115.879V158.921Z" fill="black"/>
<path d="M122.082 158.921H115.879V165.124H122.082V158.921Z" fill="black"/>
<path d="M128.284 158.921H122.082V165.124H128.284V158.921Z" fill="black"/>
<path d="M146.891 158.921H140.688V165.124H146.891V158.921Z" fill="black"/>
<path d="M153.093 158.921H146.891V165.124H153.093V158.921Z" fill="black"/>
<path d="M165.498 158.921H159.295V165.124H165.498V158.921Z" fill="black"/>
<path d="M171.7 158.921H165.498V165.124H171.7V158.921Z" fill="black"/>
<path d="M177.902 158.921H171.7V165.124H177.902V158.921Z" fill="black"/>
<path d="M29.048 165.124H22.8457V171.326H29.048V165.124Z" fill="black"/>
<path d="M66.2615 165.124H60.0592V171.326H66.2615V165.124Z" fill="black"/>
<path d="M84.8682 165.124H78.666V171.326H84.8682V165.124Z" fill="black"/>
<path d="M91.0705 165.124H84.8682V171.326H91.0705V165.124Z" fill="black"/>
<path d="M97.2727 165.124H91.0705V171.326H97.2727V165.124Z" fill="black"/>
<path d="M109.677 165.124H103.475V171.326H109.677V165.124Z" fill="black"/>
<path d="M115.879 165.124H109.677V171.326H115.879V165.124Z" fill="black"/>
<path d="M134.486 165.124H128.284V171.326H134.486V165.124Z" fill="black"/>
<path d="M140.688 165.124H134.486V171.326H140.688V165.124Z" fill="black"/>
<path d="M146.891 165.124H140.688V171.326H146.891V165.124Z" fill="black"/>
<path d="M153.093 165.124H146.891V171.326H153.093V165.124Z" fill="black"/>
<path d="M165.498 165.124H159.295V171.326H165.498V165.124Z" fill="black"/>
<path d="M171.7 165.124H165.498V171.326H171.7V165.124Z" fill="black"/>
<path d="M177.902 165.124H171.7V171.326H177.902V165.124Z" fill="black"/>
<path d="M29.048 171.326H22.8457V177.528H29.048V171.326Z" fill="black"/>
<path d="M35.2502 171.326H29.048V177.528H35.2502V171.326Z" fill="black"/>
<path d="M41.4525 171.326H35.2502V177.528H41.4525V171.326Z" fill="black"/>
<path d="M47.6547 171.326H41.4525V177.528H47.6547V171.326Z" fill="black"/>
<path d="M53.857 171.326H47.6547V177.528H53.857V171.326Z" fill="black"/>
<path d="M60.0592 171.326H53.857V177.528H60.0592L60.0592 171.326Z" fill="black"/>
<path d="M66.2615 171.326H60.0592L60.0592 177.528H66.2615V171.326Z" fill="black"/>
<path d="M78.666 171.326H72.4637V177.528H78.666V171.326Z" fill="black"/>
<path d="M97.2727 171.326H91.0705V177.528H97.2727V171.326Z" fill="black"/>
<path d="M103.475 171.326H97.2727V177.528H103.475V171.326Z" fill="black"/>
<path d="M128.284 171.326H122.082V177.528H128.284V171.326Z" fill="black"/>
<path d="M159.295 171.326H153.093V177.528H159.295V171.326Z" fill="black"/>
<path d="M177.902 171.326H171.7V177.528H177.902V171.326Z" fill="black"/>
</g>
</mask>
<g mask="url(#mask0_50_4876)">
<rect id="Rectangle 1" x="11.7715" y="11.3965" width="177.207" height="177.207" fill="#5434D4"/>
</g>
</g>
<path d="M0.5 4C0.5 2.067 2.067 0.5 4 0.5H196C197.933 0.5 199.5 2.067 199.5 4V196C199.5 197.933 197.933 199.5 196 199.5H4C2.067 199.5 0.5 197.933 0.5 196V4Z" stroke="#5434D4"/>
</g>
</svg>
