<svg width="21" height="20" viewBox="0 0 21 20" fill="none" xmlns="http://www.w3.org/2000/svg">
<g id="mail">
<path id="Vector" d="M16.5009 4.5L16.501 4.5C16.8838 4.49993 17.2522 4.64622 17.5306 4.90892C17.7315 5.0984 17.8746 5.33809 17.9471 5.60038L10.5009 9.323L3.05475 5.60038C3.12725 5.33809 3.27036 5.0984 3.4712 4.90892C3.74965 4.64622 4.118 4.49993 4.50081 4.5H4.50091H16.5009Z" fill="white" stroke="white"/>
<path id="Vector_2" d="M18.5 8.11792L10.5 12.1179L2.5 8.11792V13.9999C2.5 14.5304 2.71071 15.0391 3.08579 15.4141C3.46086 15.7892 3.96957 15.9999 4.5 15.9999H16.5C17.0304 15.9999 17.5391 15.7892 17.9142 15.4141C18.2893 15.0391 18.5 14.5304 18.5 13.9999V8.11792Z" fill="white"/>
</g>
</svg>
