<svg width="21" height="20" viewBox="0 0 21 20" fill="none" xmlns="http://www.w3.org/2000/svg">
<g id="qrcode">
<path id="Vector" d="M5 6V6.5H5.5H6.5H7V6V5V4.5H6.5H5.5H5V5V6ZM5 15V15.5H5.5H6.5H7V15V14V13.5H6.5H5.5H5V14V15ZM14.5 4.5H14V5V6V6.5H14.5H15.5H16V6V5V4.5H15.5H14.5ZM4 4C4 3.86739 4.05268 3.74021 4.14645 3.64645C4.24021 3.55268 4.36739 3.5 4.5 3.5H7.5C7.63261 3.5 7.75979 3.55268 7.85355 3.64645C7.94732 3.74021 8 3.86739 8 4V7C8 7.13261 7.94732 7.25978 7.85355 7.35355C7.75978 7.44732 7.63261 7.5 7.5 7.5H4.5C4.36739 7.5 4.24021 7.44732 4.14645 7.35355C4.05268 7.25979 4 7.13261 4 7V4ZM4 13C4 12.8674 4.05268 12.7402 4.14645 12.6464C4.24021 12.5527 4.36739 12.5 4.5 12.5H7.5C7.63261 12.5 7.75978 12.5527 7.85355 12.6464C7.94732 12.7402 8 12.8674 8 13V16C8 16.1326 7.94732 16.2598 7.85355 16.3536C7.75979 16.4473 7.63261 16.5 7.5 16.5H4.5C4.36739 16.5 4.24021 16.4473 4.14645 16.3536C4.05268 16.2598 4 16.1326 4 16V13ZM13.1464 3.64645C13.2402 3.55268 13.3674 3.5 13.5 3.5H16.5C16.6326 3.5 16.7598 3.55268 16.8536 3.64645C16.9473 3.74021 17 3.86739 17 4V7C17 7.13261 16.9473 7.25979 16.8536 7.35355C16.7598 7.44732 16.6326 7.5 16.5 7.5H13.5C13.3674 7.5 13.2402 7.44732 13.1464 7.35355C13.0527 7.25978 13 7.13261 13 7V4C13 3.86739 13.0527 3.74021 13.1464 3.64645Z" fill="#5434D4" stroke="#5434D4"/>
<path id="Vector_2" d="M11.5 4C11.5 3.73478 11.3946 3.48043 11.2071 3.29289C11.0196 3.10536 10.7652 3 10.5 3C10.2348 3 9.98043 3.10536 9.79289 3.29289C9.60536 3.48043 9.5 3.73478 9.5 4V5C9.5 5.26522 9.60536 5.51957 9.79289 5.70711C9.98043 5.89464 10.2348 6 10.5 6C10.7652 6 11.0196 5.89464 11.2071 5.70711C11.3946 5.51957 11.5 5.26522 11.5 5V4ZM10.5 7C10.7652 7 11.0196 7.10536 11.2071 7.29289C11.3946 7.48043 11.5 7.73478 11.5 8V9H13.5C13.7652 9 14.0196 9.10536 14.2071 9.29289C14.3946 9.48043 14.5 9.73478 14.5 10C14.5 10.2652 14.3946 10.5196 14.2071 10.7071C14.0196 10.8946 13.7652 11 13.5 11H10.5C10.2348 11 9.98043 10.8946 9.79289 10.7071C9.60536 10.5196 9.5 10.2652 9.5 10V8C9.5 7.73478 9.60536 7.48043 9.79289 7.29289C9.98043 7.10536 10.2348 7 10.5 7ZM16.5 9C16.2348 9 15.9804 9.10536 15.7929 9.29289C15.6054 9.48043 15.5 9.73478 15.5 10C15.5 10.2652 15.6054 10.5196 15.7929 10.7071C15.9804 10.8946 16.2348 11 16.5 11C16.7652 11 17.0196 10.8946 17.2071 10.7071C17.3946 10.5196 17.5 10.2652 17.5 10C17.5 9.73478 17.3946 9.48043 17.2071 9.29289C17.0196 9.10536 16.7652 9 16.5 9ZM9.5 13C9.5 12.7348 9.60536 12.4804 9.79289 12.2929C9.98043 12.1054 10.2348 12 10.5 12H11.5C11.7652 12 12.0196 12.1054 12.2071 12.2929C12.3946 12.4804 12.5 12.7348 12.5 13C12.5 13.2652 12.3946 13.5196 12.2071 13.7071C12.0196 13.8946 11.7652 14 11.5 14V16C11.5 16.2652 11.3946 16.5196 11.2071 16.7071C11.0196 16.8946 10.7652 17 10.5 17C10.2348 17 9.98043 16.8946 9.79289 16.7071C9.60536 16.5196 9.5 16.2652 9.5 16V13ZM7.5 11C7.76522 11 8.01957 10.8946 8.20711 10.7071C8.39464 10.5196 8.5 10.2652 8.5 10C8.5 9.73478 8.39464 9.48043 8.20711 9.29289C8.01957 9.10536 7.76522 9 7.5 9H4.5C4.23478 9 3.98043 9.10536 3.79289 9.29289C3.60536 9.48043 3.5 9.73478 3.5 10C3.5 10.2652 3.60536 10.5196 3.79289 10.7071C3.98043 10.8946 4.23478 11 4.5 11H7.5ZM17.5 13C17.5 13.2652 17.3946 13.5196 17.2071 13.7071C17.0196 13.8946 16.7652 14 16.5 14H14.5C14.2348 14 13.9804 13.8946 13.7929 13.7071C13.6054 13.5196 13.5 13.2652 13.5 13C13.5 12.7348 13.6054 12.4804 13.7929 12.2929C13.9804 12.1054 14.2348 12 14.5 12H16.5C16.7652 12 17.0196 12.1054 17.2071 12.2929C17.3946 12.4804 17.5 12.7348 17.5 13ZM16.5 17C16.7652 17 17.0196 16.8946 17.2071 16.7071C17.3946 16.5196 17.5 16.2652 17.5 16C17.5 15.7348 17.3946 15.4804 17.2071 15.2929C17.0196 15.1054 16.7652 15 16.5 15H13.5C13.2348 15 12.9804 15.1054 12.7929 15.2929C12.6054 15.4804 12.5 15.7348 12.5 16C12.5 16.2652 12.6054 16.5196 12.7929 16.7071C12.9804 16.8946 13.2348 17 13.5 17H16.5Z" fill="#5434D4"/>
</g>
</svg>
